<svg width="261" height="261" viewBox="0 0 261 261" fill="none" xmlns="http://www.w3.org/2000/svg">
<circle cx="130.758" cy="130.231" r="110" fill="#2F2D91"/>
<path d="M42.1078 96.0947H98.4686C101.782 96.0947 104.469 98.781 104.469 102.095V227.886C104.469 231.2 101.782 233.886 98.4686 233.886H42.1078C38.7941 233.886 36.1078 231.2 36.1078 227.886V102.095C36.1078 98.781 38.7941 96.0947 42.1078 96.0947Z" fill="#FFFDFD" stroke="#0B1F42" stroke-linecap="round" stroke-linejoin="round"/>
<path d="M93.5498 119.41H44.3125" stroke="#0B1F42" stroke-linecap="round" stroke-linejoin="round"/>
<path d="M76.8535 108.238H63.7226" stroke="#0B1F42" stroke-linecap="round" stroke-linejoin="round"/>
<path d="M47.9508 130.358H91.5498C92.6543 130.358 93.5498 131.253 93.5498 132.358V172.382C93.5498 173.487 92.6543 174.382 91.5498 174.382H47.9508C46.8463 174.382 45.9508 173.487 45.9508 172.382V132.358C45.9508 131.253 46.8463 130.358 47.9508 130.358Z" fill="#0B1F42"/>
<path d="M48.4135 192.456H91.0877" stroke="#0B1F42" stroke-linecap="round" stroke-linejoin="round"/>
<path d="M48.4135 204.461H91.0877" stroke="#0B1F42" stroke-linecap="round" stroke-linejoin="round"/>
<path d="M48.4135 214.463H91.0877" stroke="#0B1F42" stroke-linecap="round" stroke-linejoin="round"/>
<path d="M48.4135 224.465H91.0877" stroke="#0B1F42" stroke-linecap="round" stroke-linejoin="round"/>
<path d="M51.4141 164.236L67.5067 151.161L73.0384 158.201L88.125 145.378" stroke="#F5F5F5"/>
<path d="M113.899 102.198C113.899 99.2213 116.312 96.8082 119.288 96.8082H205.897C208.874 96.8082 211.287 99.2213 211.287 102.198V156.666C211.287 159.643 208.874 162.056 205.897 162.056H119.288C116.312 162.056 113.899 159.643 113.899 156.666V102.198Z" fill="#ACABD3" stroke="#0B1F42" stroke-linecap="round" stroke-linejoin="round"/>
<path d="M120.669 138.572L133.566 135.347L137.395 140.385L145.053 135.347L158.958 142.602L169.638 126.682L175.079 135.347L181.326 132.526L187.171 138.572L193.216 133.735L202.083 147.64" stroke="#0B1F42" stroke-linecap="round" stroke-linejoin="round"/>
<path d="M203.493 142.502L202.284 147.842L196.339 146.33" stroke="#0B1F42" stroke-linecap="round" stroke-linejoin="round"/>
<path d="M127.391 114.095L122.156 105.026L132.627 105.026L127.391 114.095Z" fill="#0B1F42" stroke="#0B1F42" stroke-linecap="round" stroke-linejoin="round"/>
<path d="M146.106 57.2629C146.106 54.2862 148.519 51.8732 151.495 51.8732H238.104C241.081 51.8732 243.494 54.2862 243.494 57.2629V111.731C243.494 114.708 241.081 117.121 238.104 117.121H151.495C148.519 117.121 146.106 114.708 146.106 111.731V57.2629Z" fill="#FFFDFD" stroke="#0B1F42" stroke-linecap="round" stroke-linejoin="round"/>
<path d="M159.873 59.7449L165.108 68.8132H154.637L159.873 59.7449Z" fill="#0B1F42" stroke="#0B1F42" stroke-linecap="round" stroke-linejoin="round"/>
<path d="M155.157 104.896L168.203 102.243L174.601 96.9395L181.752 82.6481L185.515 90.7514L189.906 86.0368L199.189 107.99L209.225 81.3221L211.859 84.8581L220.014 66.294L225.032 72.3347L231.806 60.6953" stroke="#0B1F42" stroke-linecap="round" stroke-linejoin="round"/>
<path d="M226.788 62.3261L231.806 60.6326L233.429 65.8761" stroke="#0B1F42" stroke-linecap="round" stroke-linejoin="round"/>
</svg>
