<svg width="81" height="81" viewBox="0 0 81 81" fill="none" xmlns="http://www.w3.org/2000/svg">
<circle cx="40.1387" cy="40.7183" r="36.734" transform="rotate(45 40.1387 40.7183)" fill="#FFFDFD" stroke="#0B1F42" stroke-linecap="round" stroke-linejoin="round"/>
<path d="M47.8096 49.7941H22.3684L15.5859 29.3118H52.0514L47.8096 49.7941Z" fill="#0B1F42" stroke="#0B1F42" stroke-linecap="round" stroke-linejoin="round"/>
<path d="M56.6001 49.7941H31.1589L24.3765 29.3118H60.8419L56.6001 49.7941Z" fill="#FFFDFD" stroke="#0B1F42" stroke-linecap="round" stroke-linejoin="round"/>
<path d="M60.8398 29.3116L62.2621 23.0867H67.0803" stroke="#0B1F42" stroke-linecap="round" stroke-linejoin="round"/>
<path d="M50.4023 29.3116L51.8246 23.0867H62.263" stroke="#0B1F42" stroke-linecap="round" stroke-linejoin="round"/>
<path d="M56.5998 49.7939L54.9112 58.0341H25.5791" stroke="#0B1F42" stroke-linecap="round" stroke-linejoin="round"/>
<path d="M28.6234 64.1426C29.6045 64.1426 30.3997 63.3445 30.3997 62.36C30.3997 61.3755 29.6045 60.5774 28.6234 60.5774C27.6424 60.5774 26.8472 61.3755 26.8472 62.36C26.8472 63.3445 27.6424 64.1426 28.6234 64.1426Z" fill="#0B1F42" stroke="#0B1F42" stroke-linecap="round" stroke-linejoin="round"/>
<path d="M50.4027 64.1426C51.3838 64.1426 52.179 63.3445 52.179 62.36C52.179 61.3755 51.3838 60.5774 50.4027 60.5774C49.4217 60.5774 48.6265 61.3755 48.6265 62.36C48.6265 63.3445 49.4217 64.1426 50.4027 64.1426Z" fill="#0B1F42" stroke="#0B1F42" stroke-linecap="round" stroke-linejoin="round"/>
<path d="M66.2212 14.8882L14.2715 66.8379" stroke="#0B1F42" stroke-linecap="round" stroke-linejoin="round"/>
</svg>
