<svg width="261" height="260" viewBox="0 0 261 260" fill="none" xmlns="http://www.w3.org/2000/svg">
<circle cx="130.652" cy="130" r="110" fill="#FF6130"/>
<rect x="115.586" y="65.0155" width="76.0543" height="76.0543" rx="5" fill="#0B1F42" stroke="#0B1F42" stroke-linecap="round" stroke-linejoin="round"/>
<circle cx="132.529" cy="81.9583" r="5.27286" fill="#FFFDFD"/>
<circle cx="174.774" cy="81.9583" r="5.27286" fill="#FFFDFD"/>
<circle cx="132.529" cy="103.081" r="5.27286" fill="#FFFDFD"/>
<circle cx="174.774" cy="103.081" r="5.27286" fill="#FFFDFD"/>
<circle cx="132.529" cy="124.203" r="5.27286" fill="#0B1F42"/>
<circle cx="174.774" cy="124.203" r="5.27286" fill="#FFFDFD"/>
<rect x="69.6641" y="118.93" width="76.0543" height="76.0543" rx="5" fill="white" stroke="#0B1F42" stroke-linecap="round" stroke-linejoin="round"/>
<circle cx="86.6068" cy="135.873" r="5.27286" fill="#0B1F42"/>
<circle cx="107.729" cy="156.995" r="5.27286" fill="#0B1F42"/>
<circle cx="128.851" cy="178.117" r="5.27286" fill="#0B1F42"/>
<path d="M162.424 187.254V173.001H164.843V187.254H162.424ZM156.507 181.337V178.918H170.76V181.337H156.507ZM182.856 191.444C181.589 191.444 180.448 191.192 179.433 190.688C178.418 190.184 177.605 189.493 176.993 188.615C176.381 187.736 176.046 186.736 175.989 185.613H178.58C178.681 186.614 179.135 187.441 179.941 188.096C180.754 188.744 181.726 189.068 182.856 189.068C183.763 189.068 184.569 188.856 185.275 188.431C185.987 188.006 186.545 187.423 186.948 186.682C187.359 185.933 187.564 185.087 187.564 184.144C187.564 183.18 187.352 182.32 186.927 181.564C186.509 180.801 185.933 180.2 185.199 179.761C184.465 179.321 183.626 179.098 182.683 179.091C182.007 179.084 181.312 179.188 180.599 179.404C179.887 179.613 179.3 179.883 178.839 180.214L176.334 179.912L177.673 169.028H189.162V171.403H179.919L179.142 177.925H179.271C179.725 177.565 180.293 177.266 180.977 177.029C181.661 176.791 182.374 176.672 183.115 176.672C184.469 176.672 185.674 176.996 186.733 177.644C187.798 178.285 188.633 179.163 189.238 180.279C189.849 181.395 190.155 182.669 190.155 184.101C190.155 185.512 189.839 186.772 189.205 187.88C188.579 188.982 187.715 189.853 186.614 190.493C185.512 191.127 184.26 191.444 182.856 191.444Z" fill="#FFFDFD"/>
<path d="M77.0901 80.9092V83.2847H67.4154V80.9092H77.0901ZM80.4914 93.1538V91.2102L87.7906 83.2199C88.6473 82.2841 89.3527 81.4707 89.907 80.7797C90.4613 80.0814 90.8716 79.4263 91.1379 78.8145C91.4115 78.1954 91.5482 77.5475 91.5482 76.8709C91.5482 76.0935 91.3611 75.4204 90.9868 74.8517C90.6196 74.283 90.1158 73.8439 89.4751 73.5344C88.8344 73.2249 88.1146 73.0701 87.3155 73.0701C86.4661 73.0701 85.7247 73.2465 85.0912 73.5992C84.465 73.9447 83.9791 74.4306 83.6335 75.0569C83.2952 75.6831 83.126 76.4174 83.126 77.2596H80.5778C80.5778 75.9639 80.8765 74.8265 81.474 73.8475C82.0715 72.8685 82.8849 72.1055 83.9143 71.5584C84.9509 71.0113 86.1134 70.7378 87.4019 70.7378C88.6977 70.7378 89.8458 71.0113 90.8464 71.5584C91.847 72.1055 92.6316 72.8433 93.2003 73.7719C93.769 74.7005 94.0533 75.7335 94.0533 76.8709C94.0533 77.6843 93.9057 78.4797 93.6106 79.2572C93.3227 80.0274 92.8188 80.8876 92.0989 81.8378C91.3863 82.7808 90.3965 83.9326 89.1296 85.2931L84.1626 90.6056V90.7783H94.442V93.1538H80.4914Z" fill="#FFFDFD"/>
</svg>
