<svg width="261" height="261" viewBox="0 0 261 261" fill="none" xmlns="http://www.w3.org/2000/svg">
<circle cx="130.365" cy="130.69" r="110" fill="#AA4BB3"/>
<path d="M74.7686 54.5384C74.7686 48.0326 80.0426 42.7585 86.5485 42.7585H239.28C245.786 42.7585 251.06 48.0326 251.06 54.5384V77.0633H74.7686V54.5384Z" fill="#ACABD3"/>
<path d="M74.7686 54.5384C74.7686 48.0326 80.0426 42.7585 86.5485 42.7585H239.28C245.786 42.7585 251.06 48.0326 251.06 54.5384V77.0633H74.7686V54.5384Z" stroke="#0B1F42"/>
<path d="M93.2233 57.3783C93.1819 56.9606 93.0041 56.6361 92.6899 56.4048C92.3758 56.1735 91.9494 56.0578 91.4109 56.0578C91.0449 56.0578 90.7359 56.1096 90.4839 56.2132C90.2319 56.3133 90.0386 56.4531 89.9039 56.6326C89.7728 56.8121 89.7072 57.0158 89.7072 57.2437C89.7003 57.4335 89.74 57.5993 89.8263 57.7408C89.916 57.8823 90.0386 58.0049 90.1939 58.1085C90.3493 58.2086 90.5288 58.2966 90.7325 58.3726C90.9362 58.4451 91.1537 58.5072 91.385 58.559L92.3378 58.7868C92.8004 58.8904 93.225 59.0285 93.6117 59.2011C93.9983 59.3737 94.3332 59.586 94.6163 59.838C94.8994 60.0901 95.1186 60.387 95.2739 60.7287C95.4328 61.0705 95.5139 61.4623 95.5173 61.9042C95.5139 62.5533 95.3482 63.116 95.0202 63.5924C94.6957 64.0653 94.2262 64.433 93.6117 64.6954C93.0006 64.9543 92.2636 65.0838 91.4005 65.0838C90.5443 65.0838 89.7987 64.9526 89.1634 64.6902C88.5317 64.4278 88.038 64.0395 87.6824 63.5251C87.3303 63.0072 87.1456 62.3668 87.1283 61.6039H89.2981C89.3222 61.9595 89.4241 62.2564 89.6036 62.4946C89.7866 62.7293 90.03 62.9071 90.3338 63.0279C90.641 63.1453 90.988 63.204 91.3746 63.204C91.7544 63.204 92.0841 63.1488 92.3637 63.0383C92.6468 62.9278 92.866 62.7742 93.0213 62.5774C93.1767 62.3806 93.2544 62.1545 93.2544 61.8991C93.2544 61.6608 93.1836 61.4606 93.0421 61.2984C92.904 61.1361 92.7003 60.998 92.431 60.8841C92.1652 60.7702 91.8389 60.6666 91.4523 60.5734L90.2975 60.2834C89.4034 60.0659 88.6974 59.7258 88.1795 59.2632C87.6617 58.8006 87.4045 58.1775 87.408 57.3938C87.4045 56.7517 87.5754 56.1907 87.9206 55.7109C88.2693 55.231 88.7474 54.8564 89.355 54.5871C89.9626 54.3179 90.6531 54.1832 91.4264 54.1832C92.2135 54.1832 92.9005 54.3179 93.4874 54.5871C94.0777 54.8564 94.5369 55.231 94.8649 55.7109C95.1928 56.1907 95.362 56.7465 95.3723 57.3783H93.2233ZM96.9841 67.9164V56.9796H99.159V58.3156H99.2574C99.3541 58.1016 99.4939 57.8841 99.6769 57.6631C99.8633 57.4387 100.105 57.2523 100.402 57.1038C100.702 56.952 101.075 56.876 101.52 56.876C102.1 56.876 102.635 57.0279 103.126 57.3317C103.616 57.632 104.008 58.086 104.301 58.6936C104.595 59.2978 104.741 60.0555 104.741 60.9669C104.741 61.8542 104.598 62.6033 104.312 63.2144C104.028 63.822 103.642 64.2828 103.152 64.597C102.665 64.9077 102.119 65.0631 101.515 65.0631C101.087 65.0631 100.723 64.9923 100.423 64.8507C100.126 64.7092 99.8823 64.5314 99.6924 64.3174C99.5025 64.0999 99.3575 63.8807 99.2574 63.6597H99.1901V67.9164H96.9841ZM99.1435 60.9566C99.1435 61.4295 99.2091 61.8421 99.3403 62.1942C99.4715 62.5464 99.6613 62.8208 99.9099 63.0176C100.158 63.2109 100.461 63.3076 100.816 63.3076C101.175 63.3076 101.479 63.2092 101.728 63.0124C101.976 62.8122 102.164 62.536 102.292 62.1839C102.423 61.8283 102.489 61.4192 102.489 60.9566C102.489 60.4974 102.425 60.0935 102.297 59.7448C102.169 59.3962 101.981 59.1234 101.733 58.9266C101.484 58.7299 101.179 58.6315 100.816 58.6315C100.457 58.6315 100.153 58.7264 99.9047 58.9163C99.6596 59.1062 99.4715 59.3754 99.3403 59.7241C99.2091 60.0728 99.1435 60.4836 99.1435 60.9566ZM109.806 65.0889C109.001 65.0889 108.306 64.9181 107.719 64.5763C107.136 64.2311 106.685 63.7512 106.367 63.1367C106.05 62.5187 105.891 61.8024 105.891 60.9877C105.891 60.166 106.05 59.4479 106.367 58.8334C106.685 58.2155 107.136 57.7356 107.719 57.3938C108.306 57.0486 109.001 56.876 109.806 56.876C110.61 56.876 111.304 57.0486 111.888 57.3938C112.474 57.7356 112.927 58.2155 113.244 58.8334C113.562 59.4479 113.721 60.166 113.721 60.9877C113.721 61.8024 113.562 62.5187 113.244 63.1367C112.927 63.7512 112.474 64.2311 111.888 64.5763C111.304 64.9181 110.61 65.0889 109.806 65.0889ZM109.816 63.3801C110.182 63.3801 110.488 63.2765 110.733 63.0694C110.978 62.8588 111.163 62.5722 111.287 62.2098C111.415 61.8473 111.478 61.4347 111.478 60.9721C111.478 60.5095 111.415 60.097 111.287 59.7345C111.163 59.372 110.978 59.0855 110.733 58.8749C110.488 58.6643 110.182 58.559 109.816 58.559C109.447 58.559 109.136 58.6643 108.884 58.8749C108.636 59.0855 108.447 59.372 108.32 59.7345C108.195 60.097 108.133 60.5095 108.133 60.9721C108.133 61.4347 108.195 61.8473 108.32 62.2098C108.447 62.5722 108.636 62.8588 108.884 63.0694C109.136 63.2765 109.447 63.3801 109.816 63.3801ZM115.155 64.9336V56.9796H117.294V58.3674H117.377C117.522 57.8737 117.765 57.5009 118.107 57.2488C118.449 56.9934 118.842 56.8656 119.287 56.8656C119.398 56.8656 119.517 56.8725 119.645 56.8864C119.773 56.9002 119.885 56.9192 119.981 56.9433V58.9008C119.878 58.8697 119.735 58.8421 119.552 58.8179C119.369 58.7937 119.201 58.7817 119.049 58.7817C118.725 58.7817 118.435 58.8524 118.179 58.994C117.927 59.1321 117.727 59.3254 117.579 59.5739C117.434 59.8225 117.361 60.109 117.361 60.4336V64.9336H115.155ZM116.502 53.6757L117.542 54.9393L118.583 53.6757H120.463V53.7482L118.361 56.0267H116.719L114.622 53.7482V53.6757H116.502ZM121.122 64.9336V56.9796H123.328V64.9336H121.122ZM121.438 55.9542L122.536 53.5981H124.576L122.997 55.9542H121.438ZM128.689 65.0889C127.874 65.0889 127.173 64.9163 126.586 64.5711C126.003 64.2224 125.554 63.7391 125.24 63.1212C124.929 62.5032 124.774 61.792 124.774 60.9877C124.774 60.1729 124.931 59.4583 125.245 58.8438C125.563 58.2258 126.013 57.7442 126.597 57.399C127.18 57.0503 127.874 56.876 128.679 56.876C129.372 56.876 129.98 57.002 130.501 57.254C131.023 57.506 131.435 57.8599 131.739 58.3156C132.043 58.7713 132.21 59.3064 132.241 59.9209H130.16C130.101 59.5239 129.946 59.2046 129.693 58.9629C129.445 58.7178 129.119 58.5952 128.715 58.5952C128.373 58.5952 128.074 58.6884 127.819 58.8749C127.567 59.0578 127.37 59.3254 127.229 59.6775C127.087 60.0296 127.016 60.456 127.016 60.9566C127.016 61.4641 127.085 61.8956 127.223 62.2512C127.365 62.6068 127.563 62.8778 127.819 63.0642C128.074 63.2506 128.373 63.3438 128.715 63.3438C128.967 63.3438 129.193 63.292 129.393 63.1885C129.597 63.0849 129.764 62.9347 129.895 62.738C130.03 62.5377 130.118 62.2978 130.16 62.0182H132.241C132.207 62.6258 132.041 63.1609 131.744 63.6235C131.451 64.0826 131.045 64.4416 130.527 64.7006C130.009 64.9595 129.397 65.0889 128.689 65.0889ZM133.654 64.9336V56.9796H135.86V64.9336H133.654ZM133.97 55.9542L135.067 53.5981H137.108L135.528 55.9542H133.97ZM146.103 61.5469V56.9796H148.309V64.9336H146.191V63.4888H146.108C145.928 63.9549 145.63 64.3294 145.212 64.6125C144.798 64.8956 144.292 65.0372 143.695 65.0372C143.163 65.0372 142.695 64.9163 142.291 64.6747C141.887 64.433 141.571 64.0895 141.344 63.6442C141.119 63.1988 141.005 62.6655 141.002 62.044V56.9796H143.208V61.6505C143.211 62.12 143.337 62.4911 143.586 62.7638C143.834 63.0366 144.168 63.1729 144.585 63.1729C144.851 63.1729 145.1 63.1125 145.331 62.9917C145.562 62.8674 145.749 62.6844 145.89 62.4428C146.035 62.2011 146.106 61.9025 146.103 61.5469ZM143.871 55.9542L144.968 53.5981H147.009L145.429 55.9542H143.871ZM153.667 65.0889C152.852 65.0889 152.151 64.9163 151.564 64.5711C150.981 64.2224 150.532 63.7391 150.218 63.1212C149.907 62.5032 149.752 61.792 149.752 60.9877C149.752 60.1729 149.909 59.4583 150.223 58.8438C150.541 58.2258 150.991 57.7442 151.575 57.399C152.158 57.0503 152.852 56.876 153.657 56.876C154.35 56.876 154.958 57.002 155.479 57.254C156.001 57.506 156.413 57.8599 156.717 58.3156C157.021 58.7713 157.188 59.3064 157.219 59.9209H155.138C155.079 59.5239 154.924 59.2046 154.672 58.9629C154.423 58.7178 154.097 58.5952 153.693 58.5952C153.351 58.5952 153.052 58.6884 152.797 58.8749C152.545 59.0578 152.348 59.3254 152.207 59.6775C152.065 60.0296 151.994 60.456 151.994 60.9566C151.994 61.4641 152.063 61.8956 152.201 62.2512C152.343 62.6068 152.541 62.8778 152.797 63.0642C153.052 63.2506 153.351 63.3438 153.693 63.3438C153.945 63.3438 154.171 63.292 154.371 63.1885C154.575 63.0849 154.742 62.9347 154.873 62.738C155.008 62.5377 155.096 62.2978 155.138 62.0182H157.219C157.185 62.6258 157.019 63.1609 156.722 63.6235C156.429 64.0826 156.023 64.4416 155.505 64.7006C154.987 64.9595 154.375 65.0889 153.667 65.0889ZM152.621 53.6757L153.662 54.9393L154.703 53.6757H156.582V53.7482L154.48 56.0267H152.838L150.741 53.7482V53.6757H152.621ZM162.257 65.0889C161.438 65.0889 160.734 64.9232 160.144 64.5918C159.557 64.2569 159.105 63.784 158.787 63.1729C158.469 62.5584 158.311 61.8317 158.311 60.9928C158.311 60.1746 158.469 59.4566 158.787 58.8386C159.105 58.2207 159.552 57.7391 160.128 57.3938C160.708 57.0486 161.388 56.876 162.169 56.876C162.693 56.876 163.182 56.9606 163.634 57.1297C164.09 57.2955 164.487 57.5457 164.825 57.8806C165.167 58.2155 165.433 58.6367 165.623 59.1441C165.812 59.6482 165.907 60.2385 165.907 60.9152V61.521H159.191V60.1539H163.831C163.831 59.8363 163.762 59.555 163.624 59.3098C163.486 59.0647 163.294 58.8731 163.049 58.735C162.807 58.5935 162.526 58.5227 162.205 58.5227C161.87 58.5227 161.573 58.6004 161.314 58.7558C161.059 58.9077 160.858 59.1131 160.713 59.372C160.568 59.6275 160.494 59.9123 160.491 60.2264V61.5262C160.491 61.9198 160.563 62.2598 160.708 62.5464C160.857 62.8329 161.066 63.0538 161.335 63.2092C161.604 63.3645 161.923 63.4422 162.293 63.4422C162.538 63.4422 162.762 63.4077 162.966 63.3386C163.17 63.2696 163.344 63.166 163.489 63.0279C163.634 62.8899 163.745 62.7207 163.82 62.5205L165.861 62.6551C165.757 63.1453 165.545 63.5734 165.224 63.9393C164.906 64.3018 164.495 64.5849 163.991 64.7886C163.491 64.9888 162.913 65.0889 162.257 65.0889ZM171.578 56.9796V58.6367H166.788V56.9796H171.578ZM167.875 55.0739H170.081V62.4894C170.081 62.6931 170.112 62.8519 170.174 62.9658C170.236 63.0763 170.323 63.1539 170.433 63.1988C170.547 63.2437 170.678 63.2661 170.827 63.2661C170.93 63.2661 171.034 63.2575 171.138 63.2403C171.241 63.2195 171.321 63.204 171.376 63.1937L171.723 64.8352C171.612 64.8697 171.457 64.9094 171.257 64.9543C171.056 65.0026 170.813 65.032 170.526 65.0423C169.995 65.0631 169.529 64.9923 169.128 64.83C168.731 64.6678 168.422 64.4158 168.201 64.074C167.98 63.7322 167.872 63.3007 167.875 62.7794V55.0739Z" fill="#0B1F42"/>
<circle cx="227.767" cy="59.911" r="9.59367" fill="#0B1F42" stroke="#0B1F42" strokeWidth="0.767494"/>
<path d="M227.767 54.5896V65.2322" stroke="white" strokeWidth="1.53499" strokeLinecap="round"/>
<path d="M222.445 59.9109L233.088 59.9109" stroke="white" strokeWidth="1.53499" strokeLinecap="round"/>
<mask id="path-7-inside-1_6029_117541" fill="white">
<path d="M74.2686 77.5632H251.56V106.728C251.56 113.51 246.062 119.008 239.28 119.008H86.5485C79.7665 119.008 74.2686 113.51 74.2686 106.728V77.5632Z"/>
</mask>
<path d="M74.2686 77.5632H251.56V106.728C251.56 113.51 246.062 119.008 239.28 119.008H86.5485C79.7665 119.008 74.2686 113.51 74.2686 106.728V77.5632Z" fill="#FFFDFD"/>
<path d="M74.2686 77.5632H251.56H74.2686ZM252.56 106.728C252.56 114.062 246.614 120.008 239.28 120.008H86.5485C79.2142 120.008 73.2686 114.062 73.2686 106.728H75.2686C75.2686 112.958 80.3187 118.008 86.5485 118.008H239.28C245.509 118.008 250.56 112.958 250.56 106.728H252.56ZM86.5485 120.008C79.2142 120.008 73.2686 114.062 73.2686 106.728V77.5632H75.2686V106.728C75.2686 112.958 80.3187 118.008 86.5485 118.008V120.008ZM252.56 77.5632V106.728C252.56 114.062 246.614 120.008 239.28 120.008V118.008C245.509 118.008 250.56 112.958 250.56 106.728V77.5632H252.56Z" fill="#0B1F42" mask="url(#path-7-inside-1_6029_117541)"/>
<circle cx="98.0609" cy="95.2155" r="9.59367" fill="#FFFDFD" stroke="#FFFDFD" strokeWidth="0.767494"/>
<path d="M94.9907 95.2156L101.131 95.2156" stroke="#FFFDFD" strokeWidth="1.53499" strokeLinecap="round"/>
<path d="M74.7686 144.335C74.7686 137.829 80.0426 132.555 86.5485 132.555H239.28C245.786 132.555 251.06 137.829 251.06 144.335V166.86H74.7686V144.335Z" fill="#199CF9"/>
<path d="M74.7686 144.335C74.7686 137.829 80.0426 132.555 86.5485 132.555H239.28C245.786 132.555 251.06 137.829 251.06 144.335V166.86H74.7686V144.335Z" stroke="#0B1F42"/>
<path d="M89.3861 144.125L91.9494 152.183H92.0478L94.6163 144.125H97.1019L93.446 154.73H90.5564L86.8953 144.125H89.3861ZM98.2955 154.73V153.415L102.19 148.594V148.537H98.4302V146.776H104.846V148.211L101.19 152.913V152.97H104.981V154.73H98.2955ZM109.371 154.86C108.767 154.86 108.22 154.705 107.729 154.394C107.243 154.08 106.856 153.619 106.569 153.011C106.286 152.4 106.145 151.651 106.145 150.764C106.145 149.852 106.291 149.095 106.585 148.49C106.878 147.883 107.268 147.429 107.755 147.129C108.245 146.825 108.782 146.673 109.366 146.673C109.811 146.673 110.182 146.749 110.479 146.901C110.779 147.049 111.021 147.236 111.204 147.46C111.39 147.681 111.532 147.898 111.629 148.112H111.696V144.125H113.897V154.73H111.722V153.457H111.629C111.525 153.678 111.378 153.897 111.188 154.114C111.002 154.328 110.759 154.506 110.458 154.648C110.161 154.789 109.799 154.86 109.371 154.86ZM110.07 153.104C110.426 153.104 110.726 153.008 110.971 152.814C111.22 152.618 111.409 152.343 111.541 151.991C111.675 151.639 111.743 151.226 111.743 150.753C111.743 150.28 111.677 149.87 111.546 149.521C111.415 149.172 111.225 148.903 110.976 148.713C110.728 148.523 110.426 148.428 110.07 148.428C109.707 148.428 109.402 148.527 109.153 148.724C108.905 148.92 108.717 149.193 108.589 149.542C108.461 149.89 108.397 150.294 108.397 150.753C108.397 151.216 108.461 151.625 108.589 151.981C108.72 152.333 108.908 152.609 109.153 152.809C109.402 153.006 109.707 153.104 110.07 153.104ZM119.335 154.886C118.517 154.886 117.813 154.72 117.223 154.389C116.636 154.054 116.183 153.581 115.866 152.97C115.548 152.355 115.389 151.629 115.389 150.79C115.389 149.972 115.548 149.253 115.866 148.635C116.183 148.018 116.631 147.536 117.207 147.191C117.787 146.845 118.467 146.673 119.247 146.673C119.772 146.673 120.261 146.757 120.713 146.927C121.169 147.092 121.566 147.343 121.904 147.677C122.246 148.012 122.511 148.434 122.701 148.941C122.891 149.445 122.986 150.035 122.986 150.712V151.318H116.27V149.951H120.91C120.91 149.633 120.841 149.352 120.702 149.107C120.564 148.862 120.373 148.67 120.128 148.532C119.886 148.39 119.605 148.32 119.284 148.32C118.949 148.32 118.652 148.397 118.393 148.553C118.137 148.705 117.937 148.91 117.792 149.169C117.647 149.424 117.573 149.709 117.57 150.023V151.323C117.57 151.717 117.642 152.057 117.787 152.343C117.935 152.63 118.144 152.851 118.414 153.006C118.683 153.161 119.002 153.239 119.372 153.239C119.617 153.239 119.841 153.205 120.045 153.136C120.249 153.066 120.423 152.963 120.568 152.825C120.713 152.687 120.823 152.518 120.899 152.317L122.94 152.452C122.836 152.942 122.624 153.37 122.303 153.736C121.985 154.099 121.574 154.382 121.07 154.585C120.57 154.786 119.991 154.886 119.335 154.886ZM118.155 143.473L119.196 144.736L120.236 143.473H122.116V143.545L120.014 145.824H118.372L116.275 143.545V143.473H118.155ZM126.632 144.125V154.73H124.426V144.125H126.632ZM130.667 154.881C130.16 154.881 129.707 154.793 129.31 154.617C128.913 154.437 128.599 154.173 128.368 153.824C128.14 153.472 128.026 153.034 128.026 152.509C128.026 152.067 128.107 151.696 128.269 151.396C128.432 151.095 128.653 150.854 128.932 150.671C129.212 150.488 129.53 150.35 129.885 150.256C130.244 150.163 130.62 150.098 131.014 150.06C131.477 150.011 131.849 149.966 132.133 149.925C132.416 149.88 132.621 149.814 132.749 149.728C132.876 149.642 132.94 149.514 132.94 149.345V149.314C132.94 148.986 132.837 148.732 132.63 148.553C132.426 148.373 132.136 148.283 131.76 148.283C131.363 148.283 131.047 148.371 130.812 148.547C130.577 148.72 130.422 148.938 130.346 149.2L128.306 149.034C128.409 148.551 128.613 148.133 128.917 147.781C129.221 147.425 129.612 147.153 130.092 146.963C130.576 146.77 131.135 146.673 131.77 146.673C132.212 146.673 132.635 146.725 133.039 146.828C133.446 146.932 133.807 147.092 134.121 147.31C134.439 147.527 134.689 147.807 134.872 148.149C135.055 148.487 135.146 148.893 135.146 149.366V154.73H133.054V153.627H132.992C132.864 153.876 132.694 154.095 132.479 154.285C132.265 154.472 132.008 154.618 131.708 154.725C131.408 154.829 131.061 154.881 130.667 154.881ZM131.299 153.358C131.623 153.358 131.91 153.294 132.158 153.167C132.407 153.035 132.602 152.859 132.744 152.638C132.885 152.417 132.956 152.167 132.956 151.888V151.043C132.887 151.088 132.792 151.13 132.671 151.168C132.554 151.202 132.421 151.235 132.272 151.266C132.124 151.294 131.975 151.32 131.827 151.344C131.679 151.365 131.544 151.383 131.423 151.401C131.164 151.439 130.938 151.499 130.745 151.582C130.551 151.665 130.401 151.777 130.294 151.919C130.187 152.057 130.134 152.229 130.134 152.436C130.134 152.737 130.242 152.966 130.46 153.125C130.681 153.281 130.96 153.358 131.299 153.358ZM131.061 145.751L132.158 143.395H134.199L132.619 145.751H131.061ZM139.064 150.132V154.73H136.858V146.776H138.96V148.18H139.053C139.23 147.717 139.525 147.351 139.939 147.082C140.353 146.809 140.856 146.673 141.446 146.673C141.998 146.673 142.48 146.794 142.891 147.035C143.301 147.277 143.621 147.622 143.849 148.071C144.077 148.516 144.19 149.048 144.19 149.666V154.73H141.984V150.06C141.988 149.573 141.864 149.193 141.612 148.92C141.36 148.644 141.013 148.506 140.571 148.506C140.274 148.506 140.011 148.57 139.784 148.698C139.559 148.825 139.383 149.012 139.255 149.257C139.131 149.499 139.067 149.79 139.064 150.132ZM145.929 154.73V146.776H148.135V154.73H145.929ZM146.245 145.751L147.343 143.395H149.383L147.804 145.751H146.245Z" fill="#0B1F42"/>
<circle cx="227.767" cy="149.708" r="9.59367" fill="#0B1F42" stroke="#0B1F42" strokeWidth="0.767494"/>
<path d="M227.767 144.386V155.029" stroke="white" strokeWidth="1.53499" strokeLinecap="round"/>
<path d="M222.445 149.708L233.088 149.708" stroke="white" strokeWidth="1.53499" strokeLinecap="round"/>
<mask id="path-16-inside-2_6029_117541" fill="white">
<path d="M74.2686 167.36H251.56V196.525C251.56 203.307 246.062 208.805 239.28 208.805H86.5485C79.7665 208.805 74.2686 203.307 74.2686 196.525V167.36Z"/>
</mask>
<path d="M74.2686 167.36H251.56V196.525C251.56 203.307 246.062 208.805 239.28 208.805H86.5485C79.7665 208.805 74.2686 203.307 74.2686 196.525V167.36Z" fill="#FFFDFD"/>
<path d="M74.2686 167.36H251.56H74.2686ZM252.56 196.525C252.56 203.859 246.614 209.805 239.28 209.805H86.5485C79.2142 209.805 73.2686 203.859 73.2686 196.525H75.2686C75.2686 202.755 80.3187 207.805 86.5485 207.805H239.28C245.509 207.805 250.56 202.755 250.56 196.525H252.56ZM86.5485 209.805C79.2142 209.805 73.2686 203.859 73.2686 196.525V167.36H75.2686V196.525C75.2686 202.755 80.3187 207.805 86.5485 207.805V209.805ZM252.56 167.36V196.525C252.56 203.859 246.614 209.805 239.28 209.805V207.805C245.509 207.805 250.56 202.755 250.56 196.525V167.36H252.56Z" fill="#0B1F42" mask="url(#path-16-inside-2_6029_117541)"/>
<circle cx="98.0609" cy="185.012" r="9.59367" fill="#FFFDFD" stroke="#FFFDFD" strokeWidth="0.767494"/>
<path d="M94.9907 185.012L101.131 185.012" stroke="#FFFDFD" strokeWidth="1.53499" strokeLinecap="round"/>
</svg>
