<svg width="30" height="31" viewBox="0 0 30 31" fill="none" xmlns="http://www.w3.org/2000/svg">
<path d="M1.3118 17.2859C0.230051 16.2041 0.23005 14.4502 1.3118 13.3685L13.0418 1.63846C14.1236 0.556711 15.8774 0.55671 16.9592 1.63846L28.6892 13.3685C29.771 14.4502 29.771 16.2041 28.6892 17.2859L16.9592 29.0159C15.8774 30.0976 14.1236 30.0976 13.0418 29.0159L1.3118 17.2859Z" stroke="#A7BAC8"/>
<path d="M10.9046 21.5225V19.7497L15.0467 15.9145C15.3989 15.5736 15.6944 15.2668 15.933 14.9941C16.1755 14.7213 16.3592 14.4543 16.4842 14.1929C16.6092 13.9278 16.6717 13.6418 16.6717 13.335C16.6717 12.9941 16.594 12.7005 16.4387 12.4543C16.2834 12.2043 16.0713 12.013 15.8023 11.8804C15.5334 11.7441 15.2285 11.6759 14.8876 11.6759C14.5315 11.6759 14.2209 11.7478 13.9558 11.8918C13.6906 12.0357 13.4861 12.2422 13.3421 12.5111C13.1982 12.78 13.1262 13.1001 13.1262 13.4713H10.791C10.791 12.71 10.9633 12.049 11.308 11.4884C11.6527 10.9278 12.1357 10.4941 12.7569 10.1872C13.3781 9.88041 14.094 9.72701 14.9046 9.72701C15.738 9.72701 16.4633 9.87473 17.0808 10.1702C17.702 10.4619 18.1849 10.8672 18.5296 11.3861C18.8743 11.905 19.0467 12.4997 19.0467 13.1702C19.0467 13.6096 18.9595 14.0433 18.7853 14.4713C18.6148 14.8994 18.3099 15.3747 17.8705 15.8975C17.4311 16.4164 16.8118 17.0395 16.0126 17.7668L14.3137 19.4316V19.5111H19.2001V21.5225H10.9046Z" fill="#A7BAC8"/>
</svg>
