<svg width="31" height="31" viewBox="0 0 31 31" fill="none" xmlns="http://www.w3.org/2000/svg">
<path d="M1.73852 18.1397C0.461509 16.8626 0.461508 14.7922 1.73852 13.5152L13.4685 1.78515C14.7456 0.50814 16.816 0.508139 18.093 1.78515L29.823 13.5152C31.1001 14.7922 31.1001 16.8626 29.823 18.1397L18.093 29.8697C16.816 31.1467 14.7456 31.1467 13.4685 29.8697L1.73852 18.1397Z" fill="#AA4BB3"/>
<path d="M15.9178 22.1818C15.3194 22.178 14.7417 22.0776 14.1849 21.8807C13.6319 21.6837 13.1357 21.3636 12.6963 20.9204C12.2569 20.4773 11.9084 19.8901 11.6508 19.1591C11.397 18.428 11.2701 17.5303 11.2701 16.4659C11.2739 15.4886 11.3857 14.6155 11.6053 13.8466C11.8288 13.0738 12.147 12.4185 12.5599 11.8807C12.9766 11.3428 13.4747 10.9337 14.0542 10.6534C14.6338 10.3693 15.2834 10.2273 16.0031 10.2273C16.7796 10.2273 17.4652 10.3788 18.0599 10.6818C18.6546 10.981 19.1319 11.3882 19.4917 11.9034C19.8553 12.4185 20.075 12.9962 20.1508 13.6363H17.7247C17.63 13.231 17.4311 12.9129 17.1281 12.6818C16.825 12.4507 16.45 12.3352 16.0031 12.3352C15.2455 12.3352 14.6697 12.6648 14.2758 13.3238C13.8857 13.9829 13.6868 14.8788 13.6792 16.0113H13.7588C13.933 15.6666 14.1678 15.3731 14.4633 15.1307C14.7625 14.8844 15.1016 14.6969 15.4803 14.5682C15.8629 14.4356 16.2663 14.3693 16.6906 14.3693C17.38 14.3693 17.9936 14.5322 18.5315 14.8579C19.0694 15.1799 19.4936 15.6231 19.8042 16.1875C20.1148 16.7519 20.2701 17.3977 20.2701 18.125C20.2701 18.9129 20.0864 19.6136 19.719 20.2273C19.3553 20.8409 18.8459 21.3219 18.1906 21.6704C17.5391 22.0151 16.7815 22.1856 15.9178 22.1818ZM15.9065 20.25C16.2853 20.25 16.6243 20.1591 16.9235 19.9773C17.2228 19.7954 17.4576 19.5492 17.6281 19.2386C17.7985 18.928 17.8838 18.5795 17.8838 18.1932C17.8838 17.8068 17.7985 17.4602 17.6281 17.1534C17.4614 16.8466 17.2303 16.6023 16.9349 16.4204C16.6394 16.2386 16.3023 16.1477 15.9235 16.1477C15.6394 16.1477 15.3762 16.2007 15.1338 16.3068C14.8951 16.4129 14.6849 16.5606 14.5031 16.75C14.325 16.9394 14.1849 17.1591 14.0826 17.4091C13.9803 17.6553 13.9292 17.9185 13.9292 18.1988C13.9292 18.5738 14.0144 18.9166 14.1849 19.2273C14.3591 19.5379 14.594 19.786 14.8894 19.9716C15.1887 20.1572 15.5277 20.25 15.9065 20.25Z" fill="#0B1F42"/>
</svg>
