<svg width="31" height="31" viewBox="0 0 31 31" fill="none" xmlns="http://www.w3.org/2000/svg">
<path d="M1.73852 18.1397C0.461509 16.8626 0.461508 14.7922 1.73852 13.5152L13.4685 1.78515C14.7456 0.50814 16.816 0.508139 18.093 1.78515L29.823 13.5152C31.1001 14.7922 31.1001 16.8626 29.823 18.1397L18.093 29.8697C16.816 31.1467 14.7456 31.1467 13.4685 29.8697L1.73852 18.1397Z" fill="#9ADADB"/>
<path d="M11.6849 22.0227V20.25L15.8269 16.4148C16.1792 16.0738 16.4747 15.767 16.7133 15.4943C16.9557 15.2216 17.1394 14.9545 17.2644 14.6932C17.3894 14.428 17.4519 14.142 17.4519 13.8352C17.4519 13.4943 17.3743 13.2007 17.219 12.9545C17.0637 12.7045 16.8516 12.5132 16.5826 12.3807C16.3137 12.2443 16.0088 12.1761 15.6678 12.1761C15.3118 12.1761 15.0012 12.2481 14.736 12.392C14.4709 12.536 14.2663 12.7424 14.1224 13.0113C13.9785 13.2803 13.9065 13.6004 13.9065 13.9716H11.5713C11.5713 13.2102 11.7436 12.5492 12.0883 11.9886C12.433 11.428 12.916 10.9943 13.5372 10.6875C14.1584 10.3807 14.8743 10.2273 15.6849 10.2273C16.5182 10.2273 17.2436 10.375 17.861 10.6704C18.4822 10.9621 18.9652 11.3674 19.3099 11.8863C19.6546 12.4053 19.8269 13 19.8269 13.6704C19.8269 14.1098 19.7398 14.5435 19.5656 14.9716C19.3951 15.3996 19.0902 15.875 18.6508 16.3977C18.2114 16.9166 17.5921 17.5398 16.7928 18.267L15.094 19.9318V20.0113H19.9803V22.0227H11.6849Z" fill="#0B1F42"/>
</svg>
