<svg width="31" height="31" viewBox="0 0 31 31" fill="none" xmlns="http://www.w3.org/2000/svg">
<path d="M1.73852 18.1397C0.461509 16.8626 0.461508 14.7922 1.73852 13.5152L13.4685 1.78515C14.7456 0.50814 16.816 0.508139 18.093 1.78515L29.823 13.5152C31.1001 14.7922 31.1001 16.8626 29.823 18.1397L18.093 29.8697C16.816 31.1467 14.7456 31.1467 13.4685 29.8697L1.73852 18.1397Z" fill="#199CF9"/>
<path d="M15.7758 22.4811C14.9728 22.4811 14.2569 22.3334 13.6281 22.0379C13.0031 21.7425 12.5069 21.3353 12.1394 20.8163C11.772 20.2974 11.5807 19.7027 11.5656 19.0322H13.9519C13.9785 19.483 14.1678 19.8485 14.5201 20.1288C14.8724 20.4091 15.291 20.5493 15.7758 20.5493C16.1622 20.5493 16.5031 20.4641 16.7985 20.2936C17.0978 20.1194 17.3307 19.8788 17.4974 19.572C17.6678 19.2614 17.7531 18.9054 17.7531 18.5038C17.7531 18.0947 17.666 17.7349 17.4917 17.4243C17.3213 17.1137 17.0845 16.8713 16.7815 16.697C16.4785 16.5228 16.1319 16.4338 15.7417 16.43C15.4008 16.43 15.0694 16.5001 14.7474 16.6402C14.4292 16.7804 14.1811 16.9716 14.0031 17.2141L11.8156 16.822L12.3667 10.6857H19.4803V12.697H14.3951L14.094 15.6118H14.1622C14.3667 15.3239 14.6754 15.0853 15.0883 14.8959C15.5012 14.7065 15.9633 14.6118 16.4747 14.6118C17.1754 14.6118 17.8004 14.7766 18.3497 15.1061C18.8989 15.4357 19.3326 15.8883 19.6508 16.4641C19.969 17.036 20.1262 17.6951 20.1224 18.4413C20.1262 19.2254 19.9444 19.9224 19.5769 20.5322C19.2133 21.1383 18.7038 21.6156 18.0485 21.9641C17.397 22.3088 16.6394 22.4811 15.7758 22.4811Z" fill="#0B1F42"/>
</svg>
