<svg width="30" height="31" viewBox="0 0 30 31" fill="none" xmlns="http://www.w3.org/2000/svg">
<path d="M1.3118 17.2859C0.230051 16.2041 0.23005 14.4502 1.3118 13.3685L13.0418 1.63846C14.1236 0.556711 15.8774 0.55671 16.9592 1.63846L28.6892 13.3685C29.771 14.4502 29.771 16.2041 28.6892 17.2859L16.9592 29.0159C15.8774 30.0976 14.1236 30.0976 13.0418 29.0159L1.3118 17.2859Z" stroke="#A7BAC8"/>
<path d="M14.9785 21.6816C14.13 21.6816 13.3743 21.5357 12.7114 21.2441C12.0523 20.9486 11.5315 20.5433 11.1489 20.0281C10.7702 19.5092 10.5751 18.9107 10.5637 18.2327H13.041C13.0561 18.5168 13.1489 18.7668 13.3194 18.9827C13.4936 19.1948 13.7247 19.3596 14.0126 19.477C14.3005 19.5944 14.6243 19.6531 14.9842 19.6531C15.3592 19.6531 15.6906 19.5869 15.9785 19.4543C16.2664 19.3217 16.4917 19.138 16.6546 18.9031C16.8175 18.6683 16.8989 18.3975 16.8989 18.0906C16.8989 17.78 16.8118 17.5054 16.6376 17.2668C16.4671 17.0244 16.2209 16.835 15.8989 16.6986C15.5808 16.5622 15.202 16.4941 14.7626 16.4941H13.6773V14.6872H14.7626C15.1338 14.6872 15.4614 14.6228 15.7455 14.4941C16.0334 14.3653 16.2569 14.1872 16.416 13.96C16.5751 13.7289 16.6546 13.46 16.6546 13.1531C16.6546 12.8615 16.5845 12.6058 16.4444 12.3861C16.308 12.1626 16.1148 11.9884 15.8648 11.8634C15.6186 11.7384 15.3308 11.6759 15.0012 11.6759C14.6679 11.6759 14.363 11.7365 14.0864 11.8577C13.8099 11.9751 13.5883 12.1437 13.4217 12.3634C13.255 12.5831 13.166 12.8406 13.1546 13.1361H10.7967C10.808 12.4656 10.9993 11.8747 11.3705 11.3634C11.7417 10.852 12.2417 10.4524 12.8705 10.1645C13.5031 9.87284 14.2171 9.72701 15.0126 9.72701C15.8156 9.72701 16.5183 9.87284 17.1205 10.1645C17.7228 10.4562 18.1906 10.8501 18.5239 11.3463C18.8611 11.8387 19.0277 12.3918 19.0239 13.0054C19.0277 13.6569 18.8251 14.2005 18.416 14.6361C18.0107 15.0717 17.4823 15.3482 16.8308 15.4656V15.5566C17.6868 15.6664 18.3383 15.9637 18.7853 16.4486C19.2361 16.9297 19.4595 17.5319 19.4558 18.2554C19.4595 18.9183 19.2683 19.5073 18.8819 20.0225C18.4993 20.5376 17.9709 20.9429 17.2967 21.2384C16.6224 21.5338 15.8497 21.6816 14.9785 21.6816Z" fill="#A7BAC8"/>
</svg>
