<svg width="30" height="31" viewBox="0 0 30 31" fill="none" xmlns="http://www.w3.org/2000/svg">
<path d="M0.958248 17.6394C-0.318764 16.3624 -0.318765 14.2919 0.958248 13.0149L12.6883 1.28491C13.9653 0.00789568 16.0357 0.00789469 17.3127 1.28491L29.0428 13.0149C30.3198 14.2919 30.3198 16.3624 29.0428 17.6394L17.3127 29.3694C16.0357 30.6465 13.9653 30.6465 12.6883 29.3694L0.958248 17.6394Z" fill="#199CF9"/>
<path d="M14.9955 21.9807C14.1925 21.9807 13.4766 21.833 12.8478 21.5376C12.2228 21.2421 11.7266 20.8349 11.3592 20.316C10.9917 19.797 10.8005 19.2023 10.7853 18.5319H13.1717C13.1982 18.9826 13.3876 19.3482 13.7398 19.6285C14.0921 19.9088 14.5107 20.0489 14.9955 20.0489C15.3819 20.0489 15.7228 19.9637 16.0183 19.7932C16.3175 19.619 16.5505 19.3785 16.7171 19.0717C16.8876 18.761 16.9728 18.405 16.9728 18.0035C16.9728 17.5944 16.8857 17.2345 16.7114 16.9239C16.541 16.6133 16.3042 16.3709 16.0012 16.1967C15.6982 16.0224 15.3516 15.9334 14.9614 15.9296C14.6205 15.9296 14.2891 15.9997 13.9671 16.1398C13.6489 16.28 13.4008 16.4713 13.2228 16.7137L11.0353 16.3217L11.5864 10.1853H18.7001V12.1967H13.6148L13.3137 15.1114H13.3819C13.5864 14.8235 13.8952 14.5849 14.308 14.3955C14.7209 14.2061 15.183 14.1114 15.6944 14.1114C16.3952 14.1114 17.0202 14.2762 17.5694 14.6057C18.1186 14.9353 18.5523 15.3879 18.8705 15.9637C19.1887 16.5357 19.3459 17.1948 19.3421 17.941C19.3459 18.7251 19.1641 19.422 18.7967 20.0319C18.433 20.6379 17.9236 21.1152 17.2683 21.4637C16.6167 21.8084 15.8592 21.9807 14.9955 21.9807Z" fill="#0B1F42"/>
</svg>
