<svg width="31" height="31" viewBox="0 0 31 31" fill="none" xmlns="http://www.w3.org/2000/svg">
<path d="M1.73852 18.1397C0.461509 16.8626 0.461508 14.7922 1.73852 13.5152L13.4685 1.78515C14.7456 0.50814 16.816 0.508139 18.093 1.78515L29.823 13.5152C31.1001 14.7922 31.1001 16.8626 29.823 18.1397L18.093 29.8697C16.816 31.1467 14.7456 31.1467 13.4685 29.8697L1.73852 18.1397Z" fill="#9EE1B2"/>
<path d="M15.7588 22.1818C14.9103 22.1818 14.1546 22.036 13.4917 21.7443C12.8326 21.4488 12.3118 21.0435 11.9292 20.5284C11.5504 20.0094 11.3553 19.411 11.344 18.7329H13.8213C13.8364 19.017 13.9292 19.267 14.0997 19.4829C14.2739 19.6951 14.505 19.8598 14.7928 19.9773C15.0807 20.0947 15.4046 20.1534 15.7644 20.1534C16.1394 20.1534 16.4709 20.0871 16.7588 19.9545C17.0466 19.8219 17.272 19.6382 17.4349 19.4034C17.5978 19.1685 17.6792 18.8977 17.6792 18.5909C17.6792 18.2803 17.5921 18.0057 17.4178 17.767C17.2474 17.5246 17.0012 17.3352 16.6792 17.1988C16.361 17.0625 15.9822 16.9943 15.5428 16.9943H14.4576V15.1875H15.5428C15.9141 15.1875 16.2417 15.1231 16.5258 14.9943C16.8137 14.8655 17.0372 14.6875 17.1963 14.4602C17.3553 14.2291 17.4349 13.9602 17.4349 13.6534C17.4349 13.3617 17.3648 13.106 17.2247 12.8863C17.0883 12.6629 16.8951 12.4886 16.6451 12.3636C16.3989 12.2386 16.111 12.1761 15.7815 12.1761C15.4482 12.1761 15.1432 12.2367 14.8667 12.3579C14.5902 12.4754 14.3686 12.6439 14.2019 12.8636C14.0353 13.0833 13.9463 13.3409 13.9349 13.6363H11.5769C11.5883 12.9659 11.7796 12.375 12.1508 11.8636C12.522 11.3523 13.022 10.9526 13.6508 10.6648C14.2834 10.3731 14.9974 10.2273 15.7928 10.2273C16.5959 10.2273 17.2985 10.3731 17.9008 10.6648C18.5031 10.9564 18.9709 11.3504 19.3042 11.8466C19.6413 12.339 19.808 12.892 19.8042 13.5057C19.808 14.1572 19.6053 14.7007 19.1963 15.1363C18.791 15.5719 18.2625 15.8485 17.611 15.9659V16.0568C18.4671 16.1666 19.1186 16.464 19.5656 16.9488C20.0163 17.4299 20.2398 18.0322 20.236 18.7557C20.2398 19.4185 20.0485 20.0076 19.6622 20.5227C19.2796 21.0379 18.7512 21.4432 18.0769 21.7386C17.4027 22.0341 16.63 22.1818 15.7588 22.1818Z" fill="#0B1F42"/>
</svg>
