<svg width="359" height="260" viewBox="0 0 359 260" fill="none" xmlns="http://www.w3.org/2000/svg">
<path d="M1.21484 241.71L25.8679 207.871L47.0282 103.651L85.2376 98.0835L122.516 16.5916L159.795 89.0285L174.563 59.0758L199.946 163.084L253.683 202.211L277.333 155.036L293.43 184.753L331.692 107.138L351.625 22.5491" stroke="#199CF9" stroke-width="2" strokeLinecap="round" strokeLinejoin="round"/>
<path d="M19.0434 101.448H29.9463V145.82H19.0434V101.448ZM37.5757 114.125H49.366L48.0982 127.184H48.6054C49.366 122.408 50.993 118.88 53.4863 116.598C55.9796 114.273 59.6139 113.111 64.3892 113.111C67.5163 113.153 70.0096 113.745 71.869 114.886C73.7284 116.027 75.1019 117.971 75.9893 120.718C76.919 123.422 77.3839 127.205 77.3839 132.064V145.82H66.481V133.142C66.481 130.142 66.2063 127.796 65.6569 126.106C65.1076 124.373 64.2413 123.148 63.058 122.429C61.917 121.669 60.3745 121.288 58.4306 121.288C56.4867 121.288 54.7541 121.922 53.2327 123.19C51.7114 124.416 50.5282 126.169 49.683 128.451C48.88 130.691 48.4786 133.248 48.4786 136.121V145.82H37.5757V114.125ZM79.1315 114.125H90.8584L102.839 136.819L114.756 114.125H126.483L109.748 145.82H95.8661L79.1315 114.125ZM144.968 146.834C141.164 146.834 137.826 146.137 134.952 144.742C132.079 143.348 129.839 141.383 128.233 138.847C126.669 136.269 125.888 133.311 125.888 129.973C125.888 126.634 126.669 123.697 128.233 121.162C129.839 118.584 132.079 116.598 134.952 115.203C137.826 113.808 141.164 113.111 144.968 113.111C148.729 113.111 152.025 113.724 154.856 114.949C157.73 116.133 159.97 117.823 161.576 120.021C163.181 122.176 164.005 124.669 164.048 127.5V132.698H136.727C137.234 134.685 138.396 136.164 140.214 137.136C142.073 138.065 144.714 138.53 148.137 138.53C151.095 138.53 153.483 138.298 155.3 137.833C157.159 137.326 159.125 136.607 161.195 135.678L162.653 135.044V143.728C159.653 144.869 156.948 145.672 154.539 146.137C152.131 146.602 148.94 146.834 144.968 146.834ZM153.589 127.881C153.462 125.937 152.617 124.437 151.053 123.38C149.489 122.281 147.461 121.732 144.968 121.732C142.686 121.732 140.763 122.324 139.199 123.507C137.678 124.648 136.769 126.233 136.474 128.261L153.589 127.881ZM186.309 146.834C183.815 146.834 181.005 146.602 177.878 146.137C174.751 145.714 171.898 145.123 169.32 144.362V135.234C171.983 136.248 174.497 136.988 176.864 137.453C179.23 137.875 181.808 138.086 184.597 138.086C188.105 138.086 190.619 137.917 192.14 137.579C193.662 137.199 194.422 136.544 194.422 135.614C194.422 134.769 193.725 134.199 192.33 133.903C190.978 133.607 188.823 133.374 185.865 133.205C182.273 133.036 179.272 132.741 176.864 132.318C174.455 131.895 172.363 131.029 170.588 129.719C168.813 128.409 167.926 126.465 167.926 123.887C167.926 120.338 169.574 117.654 172.87 115.837C176.209 114.02 180.773 113.111 186.562 113.111C188.506 113.111 190.957 113.28 193.915 113.618C196.873 113.914 199.705 114.337 202.409 114.886V123.824C196.789 122.641 191.971 122.049 187.957 122.049C184.66 122.049 182.231 122.239 180.667 122.62C179.146 123 178.385 123.591 178.385 124.394C178.385 125.113 178.998 125.599 180.223 125.852C181.449 126.064 183.477 126.254 186.309 126.423C189.985 126.592 193.07 126.888 195.563 127.31C198.099 127.733 200.296 128.641 202.156 130.036C204.015 131.431 204.945 133.48 204.945 136.185C204.945 139.819 203.297 142.502 200.001 144.235C196.704 145.968 192.14 146.834 186.309 146.834ZM220.967 146.454C218.221 146.454 216.171 146.095 214.819 145.376C213.509 144.615 212.621 143.411 212.156 141.763C211.691 140.115 211.459 137.664 211.459 134.41V122.049H207.402V114.125H212.346V106.519L222.362 105.251V114.125H230.095V122.049H222.362V132.508C222.362 134.537 222.425 135.973 222.552 136.819C222.721 137.622 223.123 138.213 223.756 138.594C224.433 138.932 225.552 139.101 227.116 139.101C227.581 139.101 228.574 139.058 230.095 138.974V145.186C227.264 146.031 224.221 146.454 220.967 146.454ZM240.441 110.069C238.328 110.069 236.722 109.604 235.623 108.674C234.524 107.744 233.975 106.286 233.975 104.3C233.975 100.412 236.13 98.4684 240.441 98.4684C244.836 98.4684 247.033 100.412 247.033 104.3C247.033 106.329 246.484 107.808 245.385 108.737C244.286 109.625 242.638 110.069 240.441 110.069ZM235.116 114.125H246.019V145.82H235.116V114.125ZM272.328 146.834C268.482 146.834 265.017 146.137 261.932 144.742C258.889 143.348 256.502 141.383 254.769 138.847C253.036 136.269 252.17 133.311 252.17 129.973C252.17 126.592 252.994 123.634 254.642 121.098C256.333 118.563 258.699 116.598 261.742 115.203C264.827 113.808 268.376 113.111 272.391 113.111C275.18 113.111 277.695 113.365 279.934 113.872C282.174 114.379 284.604 115.224 287.224 116.407V125.662C285.027 124.394 282.787 123.422 280.505 122.746C278.265 122.07 275.793 121.732 273.088 121.732C269.792 121.732 267.235 122.493 265.418 124.014C263.601 125.493 262.693 127.479 262.693 129.973C262.693 132.466 263.643 134.473 265.545 135.995C267.489 137.474 270.151 138.213 273.532 138.213C276.321 138.213 278.793 137.896 280.948 137.262C283.146 136.628 285.238 135.678 287.224 134.41V143.474C284.477 144.7 282.047 145.566 279.934 146.073C277.821 146.58 275.286 146.834 272.328 146.834ZM310.682 146.834C306.879 146.834 303.54 146.137 300.667 144.742C297.793 143.348 295.554 141.383 293.948 138.847C292.384 136.269 291.602 133.311 291.602 129.973C291.602 126.634 292.384 123.697 293.948 121.162C295.554 118.584 297.793 116.598 300.667 115.203C303.54 113.808 306.879 113.111 310.682 113.111C314.443 113.111 317.74 113.724 320.571 114.949C323.445 116.133 325.684 117.823 327.29 120.021C328.896 122.176 329.72 124.669 329.762 127.5V132.698H302.442C302.949 134.685 304.111 136.164 305.928 137.136C307.788 138.065 310.429 138.53 313.852 138.53C316.81 138.53 319.198 138.298 321.015 137.833C322.874 137.326 324.839 136.607 326.91 135.678L328.368 135.044V143.728C325.367 144.869 322.663 145.672 320.254 146.137C317.845 146.602 314.655 146.834 310.682 146.834ZM319.303 127.881C319.176 125.937 318.331 124.437 316.768 123.38C315.204 122.281 313.176 121.732 310.682 121.732C308.4 121.732 306.478 122.324 304.914 123.507C303.393 124.648 302.484 126.233 302.188 128.261L319.303 127.881Z" fill="#FFFDFD"/>
<path d="M47.1697 192.627H10.8037V214.335H47.1697V192.627Z" fill="#FFFDFD" stroke="#0B1F42" strokeLinecap="round" strokeLinejoin="round"/>
<path d="M47.1749 192.627H10.8037L17.3055 177.429H53.6715L47.1749 192.627Z" fill="#FF6130" stroke="#0B1F42" strokeLinecap="round" strokeLinejoin="round"/>
<path d="M58.2597 203.269V184.599L53.6733 177.429L47.1768 192.627V214.335L58.2597 203.269Z" fill="#FFFDFD" stroke="#0B1F42" strokeLinecap="round" strokeLinejoin="round"/>
<path d="M42.4533 202.085H36.3398V214.335H42.4533V202.085Z" fill="#FF6130" stroke="#0B1F42" strokeLinecap="round" strokeLinejoin="round"/>
<path d="M25.2504 195.963H10.8037V203.484H25.2504V195.963Z" fill="#FF6130" stroke="#0B1F42" strokeLinecap="round" strokeLinejoin="round"/>
<path d="M73.8298 177.73C73.8298 184.819 68.0846 190.564 60.9963 190.564H59.0555C53.6921 189.025 48.165 183.589 48.165 177.73C48.1628 172.213 54.0807 166.711 58.9668 164.897C58.9668 164.897 59.4259 164.897 60.9963 164.897C68.0846 164.897 73.8298 170.642 73.8298 177.73Z" fill="#0B1F42" stroke="#0B1F42" strokeLinecap="round" strokeLinejoin="round"/>
<path d="M59.0562 190.564C66.1439 190.564 71.8897 184.818 71.8897 177.73C71.8897 170.643 66.1439 164.897 59.0562 164.897C51.9684 164.897 46.2227 170.643 46.2227 177.73C46.2227 184.818 51.9684 190.564 59.0562 190.564Z" fill="#A3D7FD" stroke="#0B1F42" strokeLinecap="round" strokeLinejoin="round"/>
<path d="M59.0554 185.364C60.6927 185.364 62.02 184.017 62.02 182.357C62.02 180.696 60.6927 179.35 59.0554 179.35C57.4181 179.35 56.0908 180.696 56.0908 182.357C56.0908 184.017 57.4181 185.364 59.0554 185.364Z" fill="#0B1F42" stroke="#0B1F42" strokeLinecap="round" strokeLinejoin="round"/>
<path d="M53.0859 175.492C53.0859 175.492 53.3671 176.899 54.3462 176.899C55.3254 176.899 55.6187 175.492 55.6187 175.492" stroke="#0B1F42" strokeLinecap="round" strokeLinejoin="round"/>
<path d="M62.1143 175.492C62.1143 175.492 62.3954 176.899 63.3746 176.899C64.3537 176.899 64.647 175.492 64.647 175.492" stroke="#0B1F42" strokeLinecap="round" strokeLinejoin="round"/>
<path d="M154.079 47.8415C154.079 54.4035 148.761 59.7221 142.199 59.7221H140.402C135.437 58.2978 130.32 53.2653 130.32 47.8415C130.318 42.7333 135.797 37.6398 140.32 35.9609C140.32 35.9609 140.745 35.9609 142.199 35.9609C148.761 35.9609 154.079 41.2795 154.079 47.8415Z" fill="#0B1F42" stroke="#0B1F42" strokeLinecap="round" strokeLinejoin="round"/>
<path d="M140.402 59.7221C146.964 59.7221 152.283 54.403 152.283 47.8415C152.283 41.2801 146.964 35.9609 140.402 35.9609C133.841 35.9609 128.521 41.2801 128.521 47.8415C128.521 54.403 133.841 59.7221 140.402 59.7221Z" fill="#AA4BB3" stroke="#0B1F42" strokeLinecap="round" strokeLinejoin="round"/>
<path d="M142.898 46.4258L145.925 46.4475" stroke="#0B1F42" strokeLinecap="round" strokeLinejoin="round"/>
<path d="M136.048 47.1285C136.342 47.1285 136.58 46.6453 136.58 46.0493C136.58 45.4532 136.342 44.97 136.048 44.97C135.754 44.97 135.516 45.4532 135.516 46.0493C135.516 46.6453 135.754 47.1285 136.048 47.1285Z" fill="#0B1F42" stroke="#0B1F42" strokeLinecap="round" strokeLinejoin="round"/>
<path d="M136.048 50.2578C136.048 50.2578 136.976 53.5314 140.207 53.5314C143.439 53.5314 144.407 50.2578 144.407 50.2578" stroke="#0B1F42" strokeLinecap="round" strokeLinejoin="round"/>
<path d="M269.111 221.534H225.819L235.757 214.759H279.049L269.111 221.534Z" fill="#FFFDFD" stroke="#0B1F42" strokeLinecap="round" strokeLinejoin="round"/>
<path d="M225.64 221.534L221.464 233.632H273.484L269.029 221.534H225.64Z" fill="#FFD32A" stroke="#0B1F42" strokeLinecap="round" strokeLinejoin="round"/>
<path d="M283.404 226.97L278.918 214.759L268.887 221.421L273.373 233.632L283.404 226.97Z" fill="#FF6130" stroke="#0B1F42" strokeLinecap="round" strokeLinejoin="round"/>
<path d="M269.111 209.436H225.819L235.757 202.662H279.049L269.111 209.436Z" fill="#FFFDFD" stroke="#0B1F42" strokeLinecap="round" strokeLinejoin="round"/>
<path d="M225.64 209.436L221.464 221.534H273.484L269.029 209.436H225.64Z" fill="#FFD32A" stroke="#0B1F42" strokeLinecap="round" strokeLinejoin="round"/>
<path d="M283.404 214.872L278.918 202.662L268.887 209.324L273.373 221.534L283.404 214.872Z" fill="#FF6130" stroke="#0B1F42" strokeLinecap="round" strokeLinejoin="round"/>
<path d="M269.111 197.339H225.819L235.757 190.564H279.049L269.111 197.339Z" fill="#FFFDFD" stroke="#0B1F42" strokeLinecap="round" strokeLinejoin="round"/>
<path d="M225.64 197.339L221.464 209.436H273.484L269.029 197.339H225.64Z" fill="#FFD32A" stroke="#0B1F42" strokeLinecap="round" strokeLinejoin="round"/>
<path d="M283.404 202.774L278.918 190.564L268.887 197.226L273.373 209.436L283.404 202.774Z" fill="#FF6130" stroke="#0B1F42" strokeLinecap="round" strokeLinejoin="round"/>
<path d="M234.723 232.788H191.431L201.368 226.013H244.66L234.723 232.788Z" fill="#FFFDFD" stroke="#0B1F42" strokeLinecap="round" strokeLinejoin="round"/>
<path d="M191.252 232.788L187.076 244.886H239.096L234.642 232.788H191.252Z" fill="#FFD32A" stroke="#0B1F42" strokeLinecap="round" strokeLinejoin="round"/>
<path d="M249.016 238.224L244.53 226.013L234.499 232.675L238.985 244.886L249.016 238.224Z" fill="#FF6130" stroke="#0B1F42" strokeLinecap="round" strokeLinejoin="round"/>
<path d="M227.835 244.633H208.901V246.832C208.901 247.959 209.833 249.094 211.695 249.957C215.402 251.678 221.399 251.687 225.082 249.976C226.931 249.117 227.848 247.989 227.833 246.859V244.635L227.835 244.633Z" fill="#FF6130" stroke="#0B1F42" strokeLinecap="round" strokeLinejoin="round"/>
<path d="M227.835 244.692C227.851 242.265 223.626 240.28 218.398 240.258C213.17 240.235 208.918 242.183 208.901 244.61C208.885 247.036 213.11 249.021 218.338 249.044C223.566 249.066 227.818 247.118 227.835 244.692Z" fill="#FFD32A" stroke="#0B1F42" strokeLinecap="round" strokeLinejoin="round"/>
<path d="M227.835 242.399H208.901V244.598C208.901 245.725 209.833 246.86 211.695 247.722C215.402 249.444 221.399 249.453 225.082 247.742C226.931 246.882 227.848 245.755 227.833 244.624V242.401L227.835 242.399Z" fill="#FF6130" stroke="#0B1F42" strokeLinecap="round" strokeLinejoin="round"/>
<path d="M227.835 242.457C227.851 240.031 223.626 238.046 218.398 238.023C213.17 238.001 208.918 239.949 208.901 242.375C208.885 244.802 213.11 246.787 218.338 246.81C223.566 246.832 227.818 244.884 227.835 242.457Z" fill="#FFD32A" stroke="#0B1F42" strokeLinecap="round" strokeLinejoin="round"/>
<path d="M214.682 252.379H195.749V254.577C195.749 255.705 196.681 256.839 198.543 257.702C202.25 259.424 208.246 259.433 211.929 257.721C213.778 256.862 214.695 255.734 214.68 254.604V252.38L214.682 252.379Z" fill="#FF6130" stroke="#0B1F42" strokeLinecap="round" strokeLinejoin="round"/>
<path d="M214.682 252.437C214.699 250.011 210.473 248.025 205.245 248.003C200.017 247.98 195.766 249.929 195.749 252.355C195.732 254.781 199.958 256.767 205.186 256.789C210.414 256.811 214.666 254.863 214.682 252.437Z" fill="#FFD32A" stroke="#0B1F42" strokeLinecap="round" strokeLinejoin="round"/>
<path d="M269.083 180.939C269.083 188.019 263.345 193.757 256.265 193.757H254.326C248.969 192.22 243.448 186.791 243.448 180.939C243.446 175.427 249.357 169.931 254.238 168.12C254.238 168.12 254.696 168.12 256.265 168.12C263.345 168.12 269.083 173.858 269.083 180.939Z" fill="#0B1F42" stroke="#0B1F42" strokeLinecap="round" strokeLinejoin="round"/>
<path d="M254.326 193.757C261.406 193.757 267.145 188.018 267.145 180.939C267.145 173.859 261.406 168.12 254.326 168.12C247.247 168.12 241.508 173.859 241.508 180.939C241.508 188.018 247.247 193.757 254.326 193.757Z" fill="#FFD32A" stroke="#0B1F42" strokeLinecap="round" strokeLinejoin="round"/>
<path d="M249.627 183.484C249.627 183.484 250.628 187.016 254.115 187.016C257.601 187.016 258.646 183.484 258.646 183.484" stroke="#0B1F42" strokeLinecap="round" strokeLinejoin="round"/>
<path d="M248.363 178.703C248.363 178.703 248.644 180.108 249.622 180.108C250.6 180.108 250.893 178.703 250.893 178.703" stroke="#0B1F42" strokeLinecap="round" strokeLinejoin="round"/>
<path d="M257.382 178.703C257.382 178.703 257.663 180.108 258.641 180.108C259.619 180.108 259.912 178.703 259.912 178.703" stroke="#0B1F42" strokeLinecap="round" strokeLinejoin="round"/>
<rect x="259.912" y="40.7988" width="72.2771" height="48.4239" rx="4" fill="#EB4C79" stroke="#0B1F42" strokeLinecap="round" strokeLinejoin="round"/>
<rect x="285.833" y="0.717041" width="72.2771" height="48.4239" rx="4" fill="#02A3A4" stroke="#0B1F42" strokeLinecap="round" strokeLinejoin="round"/>
<path d="M264.937 71.7936L274.508 69.4007L277.35 73.1397L283.033 69.4007L293.353 74.7848L301.279 62.9697L305.317 69.4007L309.954 67.307L314.291 71.7936L318.777 68.2044L325.358 78.5239" stroke="#0B1F42" strokeLinecap="round" strokeLinejoin="round"/>
<path d="M326.405 74.7103L325.507 78.6735L321.096 77.5517" stroke="#0B1F42" strokeLinecap="round" strokeLinejoin="round"/>
<path d="M296.05 6.55908L299.936 13.2892H292.165L296.05 6.55908Z" fill="#FFFDFD" stroke="#FFFDFD" strokeLinecap="round" strokeLinejoin="round"/>
<path d="M269.926 53.6279L266.041 46.8978L273.812 46.8978L269.926 53.6279Z" fill="#0B1F42" stroke="#0B1F42" strokeLinecap="round" strokeLinejoin="round"/>
<path d="M292.552 40.0677L302.234 38.0995L306.982 34.1631L312.289 23.5567L315.082 29.5706L318.341 26.0716L325.23 42.3639L332.679 22.5726L334.634 25.1969L340.685 11.4195L344.409 15.9026L349.437 7.2644" stroke="#FFFDFD" strokeLinecap="round" strokeLinejoin="round"/>
<path d="M345.713 8.47462L349.437 7.21777L350.642 11.1093" stroke="#FFFDFD" strokeLinecap="round" strokeLinejoin="round"/>
<path d="M338.707 49.1412C338.707 55.4585 333.587 60.5788 327.269 60.5788H325.54C320.76 59.2076 315.834 54.3628 315.834 49.1412C315.832 44.2235 321.106 39.32 325.461 37.7037C325.461 37.7037 325.87 37.7037 327.269 37.7037C333.587 37.7037 338.707 42.824 338.707 49.1412Z" fill="#0B1F42" stroke="#0B1F42" strokeLinecap="round" strokeLinejoin="round"/>
<path d="M325.54 60.5788C331.857 60.5788 336.978 55.458 336.978 49.1412C336.978 42.8245 331.857 37.7037 325.54 37.7037C319.223 37.7037 314.103 42.8245 314.103 49.1412C314.103 55.458 319.223 60.5788 325.54 60.5788Z" fill="#FFFDFD" stroke="#0B1F42" strokeLinecap="round" strokeLinejoin="round"/>
<path d="M321.348 48.4005C321.631 48.4005 321.861 47.9353 321.861 47.3614C321.861 46.7876 321.631 46.3224 321.348 46.3224C321.065 46.3224 320.836 46.7876 320.836 47.3614C320.836 47.9353 321.065 48.4005 321.348 48.4005Z" fill="#0B1F42" stroke="#0B1F42" strokeLinecap="round" strokeLinejoin="round"/>
<path d="M329.394 48.4005C329.677 48.4005 329.907 47.9353 329.907 47.3614C329.907 46.7876 329.677 46.3224 329.394 46.3224C329.111 46.3224 328.882 46.7876 328.882 47.3614C328.882 47.9353 329.111 48.4005 329.394 48.4005Z" fill="#0B1F42" stroke="#0B1F42" strokeLinecap="round" strokeLinejoin="round"/>
<path d="M325.541 55.8692C327 55.8692 328.183 54.6695 328.183 53.1896C328.183 51.7096 327 50.5099 325.541 50.5099C324.081 50.5099 322.898 51.7096 322.898 53.1896C322.898 54.6695 324.081 55.8692 325.541 55.8692Z" fill="#0B1F42" stroke="#0B1F42" strokeLinecap="round" strokeLinejoin="round"/>
<path d="M105.676 78.5238C105.676 84.9489 100.468 90.1566 94.0428 90.1566H92.2836C87.422 88.762 82.4121 83.8345 82.4121 78.5238C82.41 73.5222 87.7742 68.535 92.2032 66.8911C92.2032 66.8911 92.6193 66.8911 94.0428 66.8911C100.468 66.8911 105.676 72.0988 105.676 78.5238Z" fill="#0B1F42" stroke="#0B1F42" strokeLinecap="round" strokeLinejoin="round"/>
<path d="M92.2841 90.1566C98.7087 90.1566 103.917 84.9484 103.917 78.5238C103.917 72.0993 98.7087 66.8911 92.2841 66.8911C85.8595 66.8911 80.6514 72.0993 80.6514 78.5238C80.6514 84.9484 85.8595 90.1566 92.2841 90.1566Z" fill="#EB4C79" stroke="#0B1F42" strokeLinecap="round" strokeLinejoin="round"/>
<path d="M94.7666 76.9796L98.2442 76.6635" stroke="#0B1F42" strokeLinecap="round" strokeLinejoin="round"/>
<path d="M89.2383 76.9796L85.7607 76.6635" stroke="#0B1F42" strokeLinecap="round" strokeLinejoin="round"/>
<path d="M88.0205 80.8336C88.0205 80.8336 88.929 84.039 92.0931 84.039C95.2572 84.039 96.2048 80.8336 96.2048 80.8336" stroke="#0B1F42" strokeLinecap="round" strokeLinejoin="round"/>
</svg>
