<svg width="261" height="260" viewBox="0 0 261 260" fill="none" xmlns="http://www.w3.org/2000/svg">
<circle cx="130.557" cy="130" r="110" fill="#9FD7FF"/>
<path d="M186.295 181.756H67.8369L98.9464 150.647H217.405L186.295 181.756Z" fill="#FFFDFD" stroke="#0B1F42" stroke-linecap="round" stroke-linejoin="round"/>
<path d="M217.404 170.5L186.295 201.61V181.756L217.404 150.647V170.5Z" fill="#FFFDFD" stroke="#0B1F42" stroke-linecap="round" stroke-linejoin="round"/>
<path d="M186.113 181.756H67.8369V201.61H186.113V181.756Z" fill="#FFFDFD" stroke="#0B1F42" stroke-linecap="round" stroke-linejoin="round"/>
<path d="M183.728 177.321H100.975L123.215 155.081H205.968L183.728 177.321Z" fill="#199CF9" stroke="#0B1F42" stroke-linecap="round" stroke-linejoin="round"/>
<path d="M135.662 181.756H114.291L145.4 150.647H166.769L135.662 181.756Z" fill="#9FD7FF" stroke="#0B1F42" stroke-linecap="round" stroke-linejoin="round"/>
<path d="M186.113 187.695H67.8369" stroke="#0B1F42" stroke-linecap="round" stroke-linejoin="round"/>
<path d="M186.113 193.638H67.8369" stroke="#0B1F42" stroke-linecap="round" stroke-linejoin="round"/>
<path d="M135.465 181.756H114.291V201.61H135.465V181.756Z" fill="#0B1F42" stroke="#0B1F42" stroke-linecap="round" stroke-linejoin="round"/>
<path d="M193.966 110.396H170.178V159.816C170.178 161.581 171.35 163.357 173.688 164.707C178.346 167.401 185.88 167.416 190.509 164.736C192.833 163.391 193.985 161.625 193.966 159.855V110.396Z" fill="#FFFDFD" stroke="#0B1F42" stroke-linecap="round" stroke-linejoin="round"/>
<path d="M193.929 110.499C193.95 106.707 188.64 103.604 182.07 103.568C175.499 103.533 170.156 106.578 170.136 110.371C170.115 114.163 175.425 117.266 181.995 117.301C188.566 117.337 193.909 114.292 193.929 110.499Z" fill="#FFFDFD" stroke="#0B1F42" stroke-linecap="round" stroke-linejoin="round"/>
<path d="M163.361 100.519H139.573V159.13C139.573 160.893 140.745 162.666 143.084 164.013C147.742 166.704 155.276 166.719 159.904 164.043C162.229 162.7 163.381 160.937 163.361 159.169V100.519Z" fill="#0B1F42" stroke="#0B1F42" stroke-linecap="round" stroke-linejoin="round"/>
<path d="M163.405 100.608C163.425 96.8161 158.116 93.713 151.545 93.6774C144.975 93.6419 139.632 96.6873 139.611 100.48C139.591 104.272 144.901 107.375 151.471 107.41C158.041 107.446 163.384 104.401 163.405 100.608Z" fill="#FFFDFD" stroke="#0B1F42" stroke-linecap="round" stroke-linejoin="round"/>
<path d="M176.855 136.832H153.067V169.561C153.067 171.324 154.239 173.098 156.578 174.446C161.236 177.138 168.77 177.153 173.399 174.475C175.723 173.132 176.875 171.368 176.855 169.6V136.827V136.832Z" fill="#FFFDFD" stroke="#0B1F42" stroke-linecap="round" stroke-linejoin="round"/>
<path d="M176.881 136.956C176.902 133.164 171.592 130.061 165.022 130.026C158.451 129.99 153.108 133.035 153.088 136.828C153.067 140.62 158.377 143.723 164.948 143.759C171.518 143.794 176.861 140.749 176.881 136.956Z" fill="#FFFDFD" stroke="#0B1F42" stroke-linecap="round" stroke-linejoin="round"/>
<rect x="12.6191" y="59.356" width="24.1955" height="44.3576" fill="#FFFDFD" stroke="#0B1F42" stroke-linecap="round" stroke-linejoin="round"/>
<rect x="36.8135" y="59.356" width="63.8482" height="44.3576" fill="#FFFDFD" stroke="#0B1F42" stroke-linecap="round" stroke-linejoin="round"/>
<path d="M74.1469 90.0664C76.3837 90.0664 78.197 86.2462 78.197 81.5336C78.197 76.8211 76.3837 73.0008 74.1469 73.0008C71.91 73.0008 70.0967 76.8211 70.0967 81.5336C70.0967 86.2462 71.91 90.0664 74.1469 90.0664Z" stroke="#0B1F42" stroke-linecap="round" stroke-linejoin="round"/>
<path d="M86.5346 90.0664C88.7714 90.0664 90.5847 86.2462 90.5847 81.5336C90.5847 76.8211 88.7714 73.0008 86.5346 73.0008C84.2977 73.0008 82.4844 76.8211 82.4844 81.5336C82.4844 86.2462 84.2977 90.0664 86.5346 90.0664Z" stroke="#0B1F42" stroke-linecap="round" stroke-linejoin="round"/>
<path d="M61.7592 90.0664C63.996 90.0664 65.8093 86.2462 65.8093 81.5336C65.8093 76.8211 63.996 73.0008 61.7592 73.0008C59.5223 73.0008 57.709 76.8211 57.709 81.5336C57.709 86.2462 59.5223 90.0664 61.7592 90.0664Z" stroke="#0B1F42" stroke-linecap="round" stroke-linejoin="round"/>
<path d="M45.8545 86.2491C45.8545 86.2491 45.8545 90.6319 49.572 90.0082C51.6844 89.6506 53.9964 88.4945 53.2895 83.6875C52.5826 78.8805 45.8545 80.1613 45.8545 80.1613V73.0007H53.2895" stroke="#0B1F42" stroke-linecap="round" stroke-linejoin="round"/>
<rect x="28.8965" y="71.2498" width="24.1955" height="44.3576" fill="#FFFDFD" stroke="#0B1F42" stroke-linecap="round" stroke-linejoin="round"/>
<rect x="53.0908" y="71.2498" width="63.8482" height="44.3576" fill="#0B1F42" stroke="#0B1F42" stroke-linecap="round" stroke-linejoin="round"/>
<path d="M90.4242 101.96C92.6611 101.96 94.4744 98.14 94.4744 93.4274C94.4744 88.7149 92.6611 84.8946 90.4242 84.8946C88.1874 84.8946 86.374 88.7149 86.374 93.4274C86.374 98.14 88.1874 101.96 90.4242 101.96Z" stroke="#0B1F42" stroke-linecap="round" stroke-linejoin="round"/>
<path d="M102.812 101.96C105.049 101.96 106.862 98.14 106.862 93.4274C106.862 88.7149 105.049 84.8946 102.812 84.8946C100.575 84.8946 98.7617 88.7149 98.7617 93.4274C98.7617 98.14 100.575 101.96 102.812 101.96Z" stroke="#0B1F42" stroke-linecap="round" stroke-linejoin="round"/>
<path d="M78.0365 101.96C80.2734 101.96 82.0867 98.14 82.0867 93.4274C82.0867 88.7149 80.2734 84.8946 78.0365 84.8946C75.7997 84.8946 73.9863 88.7149 73.9863 93.4274C73.9863 98.14 75.7997 101.96 78.0365 101.96Z" stroke="#0B1F42" stroke-linecap="round" stroke-linejoin="round"/>
<path d="M62.1318 98.1429C62.1318 98.1429 62.1318 102.526 65.8494 101.902C67.9618 101.544 70.2738 100.388 69.5669 95.5813C68.86 90.7743 62.1318 92.0551 62.1318 92.0551V84.8945H69.5669" stroke="#0B1F42" stroke-linecap="round" stroke-linejoin="round"/>
<rect x="42.5137" y="83.5124" width="24.1955" height="44.3576" fill="#FFFDFD" stroke="#0B1F42" stroke-linecap="round" stroke-linejoin="round"/>
<rect x="66.708" y="83.5123" width="63.8482" height="44.3576" fill="#FFFDFD" stroke="#0B1F42" stroke-linecap="round" stroke-linejoin="round"/>
<path d="M104.041 114.223C106.278 114.223 108.092 110.403 108.092 105.69C108.092 100.977 106.278 97.1572 104.041 97.1572C101.805 97.1572 99.9912 100.977 99.9912 105.69C99.9912 110.403 101.805 114.223 104.041 114.223Z" stroke="#0B1F42" stroke-linecap="round" stroke-linejoin="round"/>
<path d="M116.429 114.223C118.666 114.223 120.479 110.403 120.479 105.69C120.479 100.977 118.666 97.1572 116.429 97.1572C114.192 97.1572 112.379 100.977 112.379 105.69C112.379 110.403 114.192 114.223 116.429 114.223Z" stroke="#0B1F42" stroke-linecap="round" stroke-linejoin="round"/>
<path d="M91.6537 114.223C93.8906 114.223 95.7039 110.403 95.7039 105.69C95.7039 100.977 93.8906 97.1572 91.6537 97.1572C89.4168 97.1572 87.6035 100.977 87.6035 105.69C87.6035 110.403 89.4168 114.223 91.6537 114.223Z" stroke="#0B1F42" stroke-linecap="round" stroke-linejoin="round"/>
<path d="M75.749 110.405C75.749 110.405 75.749 114.788 79.4665 114.165C81.579 113.807 83.891 112.651 83.1841 107.844C82.4771 103.037 75.749 104.318 75.749 104.318V97.1571H83.1841" stroke="#0B1F42" stroke-linecap="round" stroke-linejoin="round"/>
</svg>
