<svg width="261" height="261" viewBox="0 0 261 261" fill="none" xmlns="http://www.w3.org/2000/svg">
<circle cx="130.5" cy="130.941" r="110" fill="#E1015B"/>
<rect width="59.9804" height="83.0922" transform="matrix(-1 0 0 1 248.402 69.3035)" fill="white" stroke="#0B1F42" stroke-linecap="round" stroke-linejoin="round"/>
<path fill-rule="evenodd" clip-rule="evenodd" d="M98.3032 235.863L106.126 149.252L147.922 149.724L149.523 238.936C143.292 240.034 136.879 240.607 130.332 240.607C119.191 240.607 108.436 238.948 98.3032 235.863Z" fill="#0B1F42"/>
<path d="M127.745 173.797L135.512 154.6L119.708 153.878L127.745 173.797Z" fill="white" stroke="#0B1F42" stroke-linecap="round" stroke-linejoin="round"/>
<path d="M138.636 164.755V149.77L116.493 149.412V165.827L127.921 155.649L138.636 164.755Z" fill="white" stroke="#0B1F42" stroke-linecap="round" stroke-linejoin="round"/>
<path d="M161.581 93.9923C163.123 92.5766 165.295 91.6758 167.748 91.6758C172.584 91.6758 176.438 95.2149 176.438 99.6548C176.438 104.095 172.514 107.634 167.748 107.634C165.365 107.634 163.193 106.733 161.651 105.317" fill="white"/>
<path d="M161.581 93.9923C163.123 92.5766 165.295 91.6758 167.748 91.6758C172.584 91.6758 176.438 95.2149 176.438 99.6548C176.438 104.095 172.514 107.634 167.748 107.634C165.365 107.634 163.193 106.733 161.651 105.317" stroke="#0B1F42" stroke-linecap="round" stroke-linejoin="round"/>
<path d="M129.39 37.7488C150.83 37.7488 168.185 55.012 168.185 76.2694V102.13C168.185 123.388 150.83 140.651 129.39 140.651C107.951 140.651 90.5957 123.388 90.5957 102.13V76.2694C90.5957 55.012 107.951 37.7488 129.39 37.7488Z" fill="white" stroke="#0B1F42" stroke-linecap="round" stroke-linejoin="round"/>
<path d="M148.102 149.77L191.023 194.657L215.235 152.561" stroke="#0B1F42" stroke-linecap="round" stroke-linejoin="round"/>
<path d="M148.222 149.784L105.98 149.379" stroke="#0B1F42" stroke-linecap="round" stroke-linejoin="round"/>
<path d="M152.685 115.41C152.685 115.41 150.727 119.867 145.026 119.867C139.325 119.867 136.765 115.41 136.765 115.41" stroke="#0B1F42" stroke-linecap="round" stroke-linejoin="round"/>
<path d="M161.581 110.131L151.405 102.452H139.619L131.941 110.131H161.581Z" fill="#0B1F42" stroke="#0B1F42" stroke-linecap="round" stroke-linejoin="round"/>
<path d="M106.487 61.3432L97.8289 82.5698C95.9014 87.2952 89.319 87.5841 86.985 83.0457L81.6253 72.6239C80.6597 70.7464 80.7568 68.4987 81.8808 66.7115L92.5262 49.7843C94.9494 45.9312 100.619 46.0953 102.816 50.0821L106.188 56.2044C107.059 57.7844 107.169 59.673 106.487 61.3432Z" fill="#0B1F42" stroke="#0B1F42" stroke-linecap="round" stroke-linejoin="round"/>
<path d="M95.5474 88.7595C93.9729 87.2665 91.8013 86.3398 89.3944 86.3398C84.5806 86.3398 80.6898 90.0293 80.6898 94.594C80.6898 99.1587 84.5806 102.848 89.3944 102.848C91.7832 102.848 93.9367 101.939 95.5112 100.463" fill="white"/>
<path d="M95.5474 88.7595C93.9729 87.2665 91.8013 86.3398 89.3944 86.3398C84.5806 86.3398 80.6898 90.0293 80.6898 94.594C80.6898 99.1587 84.5806 102.848 89.3944 102.848C91.7832 102.848 93.9367 101.939 95.5112 100.463" stroke="#0B1F42" stroke-linecap="round" stroke-linejoin="round"/>
<path d="M91.0864 193.445C86.023 194.026 82.0823 198.591 82.0823 204.139C82.0823 209.686 86.023 214.252 91.0864 214.833V210.456C88.2783 209.909 86.1496 207.289 86.1496 204.139C86.1496 200.989 88.2783 198.369 91.0864 197.822V193.445Z" fill="white" stroke="#0B1F42" stroke-linecap="round" stroke-linejoin="round"/>
<path d="M92.8172 193.382C91.7156 192.402 91.0854 191.262 91.0854 190.047V215.25C91.0854 218.936 96.8803 221.924 104.029 221.924C111.177 221.924 116.972 218.936 116.972 215.25V190.047C116.972 191.262 116.342 192.402 115.24 193.384C113.003 195.379 108.819 196.721 104.029 196.721C99.2383 196.721 95.0542 195.379 92.8172 193.382Z" fill="white" stroke="#0B1F42" stroke-linecap="round" stroke-linejoin="round"/>
<path d="M91.0854 190.047C91.0854 191.262 91.7156 192.402 92.8172 193.382C95.0556 191.389 99.2383 190.047 104.029 190.047C108.819 190.047 113.002 191.389 115.24 193.384C116.342 192.402 116.972 191.262 116.972 190.047C116.972 186.361 111.177 183.372 104.029 183.372C96.8803 183.372 91.0854 186.361 91.0854 190.047Z" fill="white" stroke="#0B1F42" stroke-linecap="round" stroke-linejoin="round"/>
<path d="M92.8157 193.382C95.0527 195.379 99.2368 196.721 104.027 196.721C108.818 196.721 113.002 195.379 115.239 193.384C113 191.389 108.818 190.047 104.027 190.047C99.2368 190.047 95.0541 191.389 92.8157 193.382Z" fill="#0B1F42" stroke="#0B1F42" stroke-linecap="round" stroke-linejoin="round"/>
<path d="M105.727 149.412L58.4409 196.677L85.9627 204.68" stroke="#0B1F42" stroke-linecap="round" stroke-linejoin="round"/>
<path d="M137.108 88.9244C137.108 90.5964 136.779 92.2521 136.139 93.7969C135.499 95.3417 134.561 96.7453 133.379 97.9276C132.196 99.1099 130.793 100.048 129.248 100.688C127.703 101.328 126.048 101.657 124.376 101.657C122.704 101.657 121.048 101.328 119.503 100.688C117.958 100.048 116.555 99.1099 115.372 97.9276C114.19 96.7453 113.252 95.3417 112.612 93.7969C111.972 92.2521 111.643 90.5964 111.643 88.9244L124.376 88.9244H137.108Z" fill="white" stroke="#0B1F42" stroke-linecap="round" stroke-linejoin="round"/>
<path d="M175.304 88.9244C175.304 90.5964 174.975 92.2521 174.335 93.7969C173.695 95.3417 172.757 96.7453 171.575 97.9276C170.392 99.1099 168.989 100.048 167.444 100.688C165.899 101.328 164.243 101.657 162.571 101.657C160.899 101.657 159.244 101.328 157.699 100.688C156.154 100.048 154.75 99.1099 153.568 97.9276C152.386 96.7453 151.448 95.3417 150.808 93.7969C150.168 92.2521 149.839 90.5964 149.839 88.9244L162.571 88.9244H175.304Z" fill="white" stroke="#0B1F42" stroke-linecap="round" stroke-linejoin="round"/>
<path d="M111.639 88.9246L95.7236 88.9246" stroke="#0B1F42" stroke-linecap="round" stroke-linejoin="round"/>
<path d="M137.096 88.9246C137.096 88.9246 138.662 85.7414 143.222 85.7414C147.781 85.7414 149.829 88.9246 149.829 88.9246" stroke="#0B1F42" stroke-linecap="round" stroke-linejoin="round"/>
<path d="M162.381 92.7356V88.9241" stroke="#0B1F42" stroke-linecap="round" stroke-linejoin="round"/>
<path d="M123.441 92.7356V88.9241" stroke="#0B1F42" stroke-linecap="round" stroke-linejoin="round"/>
<path d="M206.593 103.604C206.593 103.604 206.066 91.6758 218.626 91.6758C218.626 91.6758 229.927 91.6758 229.927 103.604C229.927 115.22 218.154 115.011 218.154 126.258" stroke="#0B1F42" stroke-linecap="round"/>
<path d="M218.412 136.719V138.079" stroke="#0B1F42" stroke-linecap="round"/>
<path d="M36.0947 134.617L53.1262 105.118L70.1578 134.617H36.0947Z" fill="#F9C9D7" stroke="#0B1F42" stroke-linecap="round" stroke-linejoin="round"/>
<path d="M53.127 115.253V125.446" stroke="#0B1F42" stroke-linecap="round" stroke-linejoin="round"/>
<path d="M53.127 129.646V129.444" stroke="#0B1F42" stroke-linecap="round" stroke-linejoin="round"/>
</svg>
