<svg width="261" height="261" viewBox="0 0 261 261" fill="none" xmlns="http://www.w3.org/2000/svg">
<circle cx="130.652" cy="130.432" r="110" fill="#AA4BB3"/>
<path d="M74.5566 54.2799C74.5566 47.4979 80.0545 42 86.8365 42H239.568C246.35 42 251.848 47.4979 251.848 54.2799V77.3047H74.5566V54.2799Z" fill="#ACABD3"/>
<path d="M93.5119 57.1196C93.4704 56.7019 93.2927 56.3774 92.9785 56.1461C92.6643 55.9148 92.238 55.7991 91.6994 55.7991C91.3335 55.7991 91.0245 55.8509 90.7725 55.9545C90.5205 56.0546 90.3272 56.1944 90.1925 56.3739C90.0613 56.5535 89.9957 56.7571 89.9957 56.985C89.9888 57.1749 90.0285 57.3406 90.1148 57.4821C90.2046 57.6237 90.3272 57.7462 90.4825 57.8498C90.6379 57.9499 90.8174 58.0379 91.0211 58.1139C91.2247 58.1864 91.4422 58.2485 91.6735 58.3003L92.6264 58.5282C93.089 58.6317 93.5136 58.7698 93.9003 58.9424C94.2869 59.115 94.6218 59.3274 94.9049 59.5794C95.188 59.8314 95.4072 60.1283 95.5625 60.4701C95.7213 60.8118 95.8025 61.2037 95.8059 61.6456C95.8025 62.2946 95.6367 62.8573 95.3088 63.3337C94.9843 63.8067 94.5148 64.1743 93.9003 64.4367C93.2892 64.6956 92.5521 64.8251 91.6891 64.8251C90.8329 64.8251 90.0872 64.6939 89.452 64.4315C88.8202 64.1692 88.3266 63.7808 87.971 63.2664C87.6189 62.7486 87.4342 62.1082 87.4169 61.3452H89.5866C89.6108 61.7008 89.7127 61.9977 89.8922 62.2359C90.0751 62.4707 90.3185 62.6484 90.6223 62.7693C90.9296 62.8867 91.2765 62.9453 91.6632 62.9453C92.0429 62.9453 92.3726 62.8901 92.6523 62.7796C92.9353 62.6692 93.1546 62.5155 93.3099 62.3188C93.4653 62.122 93.5429 61.8959 93.5429 61.6404C93.5429 61.4022 93.4722 61.2019 93.3306 61.0397C93.1925 60.8774 92.9889 60.7393 92.7196 60.6254C92.4538 60.5115 92.1275 60.4079 91.7409 60.3147L90.5861 60.0247C89.6919 59.8072 88.986 59.4672 88.4681 59.0046C87.9503 58.542 87.6931 57.9188 87.6965 57.1352C87.6931 56.4931 87.864 55.9321 88.2092 55.4522C88.5579 54.9723 89.036 54.5978 89.6436 54.3285C90.2512 54.0592 90.9417 53.9246 91.715 53.9246C92.5021 53.9246 93.1891 54.0592 93.776 54.3285C94.3663 54.5978 94.8255 54.9723 95.1534 55.4522C95.4814 55.9321 95.6506 56.4879 95.6609 57.1196H93.5119ZM97.2727 67.6577V56.7209H99.4476V58.0569H99.546C99.6427 57.8429 99.7825 57.6254 99.9655 57.4044C100.152 57.1801 100.394 56.9936 100.69 56.8452C100.991 56.6933 101.364 56.6173 101.809 56.6173C102.389 56.6173 102.924 56.7692 103.414 57.073C103.904 57.3734 104.296 57.8274 104.59 58.435C104.883 59.0391 105.03 59.7969 105.03 60.7083C105.03 61.5955 104.887 62.3446 104.6 62.9557C104.317 63.5633 103.93 64.0242 103.44 64.3383C102.953 64.649 102.408 64.8044 101.804 64.8044C101.376 64.8044 101.011 64.7336 100.711 64.5921C100.414 64.4505 100.171 64.2727 99.981 64.0587C99.7911 63.8412 99.6461 63.622 99.546 63.401H99.4787V67.6577H97.2727ZM99.4321 60.6979C99.4321 61.1709 99.4977 61.5834 99.6289 61.9356C99.76 62.2877 99.9499 62.5621 100.198 62.7589C100.447 62.9522 100.749 63.0489 101.105 63.0489C101.464 63.0489 101.768 62.9505 102.016 62.7537C102.265 62.5535 102.453 62.2773 102.581 61.9252C102.712 61.5696 102.777 61.1605 102.777 60.6979C102.777 60.2388 102.713 59.8348 102.586 59.4862C102.458 59.1375 102.27 58.8648 102.021 58.668C101.773 58.4712 101.467 58.3728 101.105 58.3728C100.746 58.3728 100.442 58.4677 100.193 58.6576C99.9482 58.8475 99.76 59.1168 99.6289 59.4655C99.4977 59.8141 99.4321 60.225 99.4321 60.6979ZM110.094 64.8303C109.29 64.8303 108.594 64.6594 108.008 64.3176C107.424 63.9724 106.974 63.4925 106.656 62.878C106.338 62.2601 106.18 61.5437 106.18 60.729C106.18 59.9073 106.338 59.1893 106.656 58.5748C106.974 57.9568 107.424 57.4769 108.008 57.1352C108.594 56.7899 109.29 56.6173 110.094 56.6173C110.899 56.6173 111.593 56.7899 112.176 57.1352C112.763 57.4769 113.215 57.9568 113.533 58.5748C113.85 59.1893 114.009 59.9073 114.009 60.729C114.009 61.5437 113.85 62.2601 113.533 62.878C113.215 63.4925 112.763 63.9724 112.176 64.3176C111.593 64.6594 110.899 64.8303 110.094 64.8303ZM110.105 63.1214C110.471 63.1214 110.776 63.0178 111.021 62.8107C111.266 62.6001 111.451 62.3136 111.575 61.9511C111.703 61.5886 111.767 61.1761 111.767 60.7134C111.767 60.2508 111.703 59.8383 111.575 59.4758C111.451 59.1133 111.266 58.8268 111.021 58.6162C110.776 58.4056 110.471 58.3003 110.105 58.3003C109.735 58.3003 109.425 58.4056 109.173 58.6162C108.924 58.8268 108.736 59.1133 108.608 59.4758C108.484 59.8383 108.422 60.2508 108.422 60.7134C108.422 61.1761 108.484 61.5886 108.608 61.9511C108.736 62.3136 108.924 62.6001 109.173 62.8107C109.425 63.0178 109.735 63.1214 110.105 63.1214ZM115.444 64.6749V56.7209H117.582V58.1087H117.665C117.81 57.615 118.054 57.2422 118.395 56.9902C118.737 56.7347 119.131 56.607 119.576 56.607C119.687 56.607 119.806 56.6139 119.933 56.6277C120.061 56.6415 120.173 56.6605 120.27 56.6847V58.6421C120.166 58.611 120.023 58.5834 119.84 58.5592C119.657 58.5351 119.49 58.523 119.338 58.523C119.013 58.523 118.723 58.5938 118.468 58.7353C118.216 58.8734 118.016 59.0667 117.867 59.3153C117.722 59.5638 117.65 59.8504 117.65 60.1749V64.6749H115.444ZM116.79 53.4171L117.831 54.6806L118.872 53.4171H120.752V53.4896L118.649 55.7681H117.008L114.91 53.4896V53.4171H116.79ZM121.411 64.6749V56.7209H123.617V64.6749H121.411ZM121.726 55.6956L122.824 53.3394H124.865L123.285 55.6956H121.726ZM128.977 64.8303C128.163 64.8303 127.462 64.6577 126.875 64.3124C126.292 63.9638 125.843 63.4804 125.529 62.8625C125.218 62.2445 125.063 61.5334 125.063 60.729C125.063 59.9142 125.22 59.1996 125.534 58.5851C125.851 57.9672 126.302 57.4856 126.885 57.1404C127.469 56.7917 128.163 56.6173 128.967 56.6173C129.661 56.6173 130.269 56.7433 130.79 56.9954C131.311 57.2474 131.724 57.6012 132.028 58.0569C132.331 58.5126 132.499 59.0477 132.53 59.6622H130.448C130.389 59.2652 130.234 58.9459 129.982 58.7042C129.734 58.4591 129.407 58.3366 129.003 58.3366C128.662 58.3366 128.363 58.4298 128.107 58.6162C127.855 58.7992 127.659 59.0667 127.517 59.4188C127.376 59.771 127.305 60.1973 127.305 60.6979C127.305 61.2054 127.374 61.6369 127.512 61.9925C127.654 62.3481 127.852 62.6191 128.107 62.8055C128.363 62.9919 128.662 63.0852 129.003 63.0852C129.255 63.0852 129.481 63.0334 129.682 62.9298C129.885 62.8262 130.053 62.6761 130.184 62.4793C130.319 62.2791 130.407 62.0391 130.448 61.7595H132.53C132.495 62.3671 132.33 62.9022 132.033 63.3648C131.739 63.8239 131.334 64.183 130.816 64.4419C130.298 64.7008 129.685 64.8303 128.977 64.8303ZM133.942 64.6749V56.7209H136.148V64.6749H133.942ZM134.258 55.6956L135.356 53.3394H137.396L135.817 55.6956H134.258ZM146.391 61.2883V56.7209H148.597V64.6749H146.479V63.2302H146.396C146.217 63.6962 145.918 64.0708 145.5 64.3539C145.086 64.637 144.58 64.7785 143.983 64.7785C143.452 64.7785 142.984 64.6577 142.58 64.416C142.176 64.1743 141.86 63.8308 141.632 63.3855C141.408 62.9402 141.294 62.4068 141.29 61.7854V56.7209H143.496V61.3918C143.5 61.8613 143.626 62.2324 143.874 62.5052C144.123 62.7779 144.456 62.9143 144.874 62.9143C145.14 62.9143 145.388 62.8539 145.62 62.733C145.851 62.6087 146.037 62.4258 146.179 62.1841C146.324 61.9425 146.395 61.6438 146.391 61.2883ZM144.159 55.6956L145.257 53.3394H147.297L145.718 55.6956H144.159ZM153.955 64.8303C153.141 64.8303 152.44 64.6577 151.853 64.3124C151.27 63.9638 150.821 63.4804 150.507 62.8625C150.196 62.2445 150.041 61.5334 150.041 60.729C150.041 59.9142 150.198 59.1996 150.512 58.5851C150.829 57.9672 151.28 57.4856 151.863 57.1404C152.447 56.7917 153.141 56.6173 153.945 56.6173C154.639 56.6173 155.247 56.7433 155.768 56.9954C156.289 57.2474 156.702 57.6012 157.006 58.0569C157.309 58.5126 157.477 59.0477 157.508 59.6622H155.426C155.367 59.2652 155.212 58.9459 154.96 58.7042C154.712 58.4591 154.385 58.3366 153.981 58.3366C153.64 58.3366 153.341 58.4298 153.086 58.6162C152.833 58.7992 152.637 59.0667 152.495 59.4188C152.354 59.771 152.283 60.1973 152.283 60.6979C152.283 61.2054 152.352 61.6369 152.49 61.9925C152.632 62.3481 152.83 62.6191 153.086 62.8055C153.341 62.9919 153.64 63.0852 153.981 63.0852C154.233 63.0852 154.46 63.0334 154.66 62.9298C154.863 62.8262 155.031 62.6761 155.162 62.4793C155.297 62.2791 155.385 62.0391 155.426 61.7595H157.508C157.473 62.3671 157.308 62.9022 157.011 63.3648C156.717 63.8239 156.312 64.183 155.794 64.4419C155.276 64.7008 154.663 64.8303 153.955 64.8303ZM152.909 53.4171L153.95 54.6806L154.991 53.4171H156.871V53.4896L154.768 55.7681H153.127L151.03 53.4896V53.4171H152.909ZM162.545 64.8303C161.727 64.8303 161.023 64.6646 160.432 64.3332C159.845 63.9983 159.393 63.5253 159.076 62.9143C158.758 62.2998 158.599 61.5731 158.599 60.7342C158.599 59.916 158.758 59.1979 159.076 58.5799C159.393 57.962 159.84 57.4804 160.417 57.1352C160.997 56.7899 161.677 56.6173 162.457 56.6173C162.982 56.6173 163.47 56.7019 163.923 56.8711C164.378 57.0368 164.775 57.2871 165.114 57.6219C165.455 57.9568 165.721 58.378 165.911 58.8855C166.101 59.3895 166.196 59.9798 166.196 60.6565V61.2624H159.48V59.8953H164.119C164.119 59.5777 164.05 59.2963 163.912 59.0512C163.774 58.8061 163.583 58.6145 163.337 58.4764C163.096 58.3348 162.814 58.2641 162.493 58.2641C162.159 58.2641 161.862 58.3417 161.603 58.4971C161.347 58.649 161.147 58.8544 161.002 59.1133C160.857 59.3688 160.783 59.6536 160.779 59.9678V61.2675C160.779 61.6611 160.852 62.0011 160.997 62.2877C161.145 62.5742 161.354 62.7952 161.623 62.9505C161.893 63.1059 162.212 63.1835 162.581 63.1835C162.827 63.1835 163.051 63.149 163.255 63.08C163.458 63.0109 163.633 62.9074 163.778 62.7693C163.923 62.6312 164.033 62.462 164.109 62.2618L166.149 62.3964C166.046 62.8867 165.833 63.3147 165.512 63.6807C165.195 64.0432 164.784 64.3262 164.28 64.5299C163.779 64.7302 163.201 64.8303 162.545 64.8303ZM171.866 56.7209V58.378H167.076V56.7209H171.866ZM168.164 54.8152H170.37V62.2307C170.37 62.4344 170.401 62.5932 170.463 62.7071C170.525 62.8176 170.611 62.8953 170.722 62.9402C170.836 62.985 170.967 63.0075 171.115 63.0075C171.219 63.0075 171.323 62.9989 171.426 62.9816C171.53 62.9609 171.609 62.9453 171.664 62.935L172.011 64.5765C171.901 64.6111 171.745 64.6508 171.545 64.6956C171.345 64.744 171.102 64.7733 170.815 64.7837C170.283 64.8044 169.817 64.7336 169.417 64.5714C169.02 64.4091 168.711 64.1571 168.49 63.8153C168.269 63.4735 168.16 63.042 168.164 62.5207V54.8152Z" fill="#0B1F42"/>
<circle cx="228.056" cy="59.6523" r="9.59367" fill="#0B1F42" stroke="#0B1F42" stroke-width="0.767494"/>
<path d="M228.056 54.3309V64.9735" stroke="white" stroke-width="1.53499" stroke-linecap="round"/>
<path d="M222.734 59.6522L233.377 59.6522" stroke="white" stroke-width="1.53499" stroke-linecap="round"/>
<path d="M74.5566 77.3047H251.848V106.469C251.848 113.251 246.35 118.749 239.568 118.749H86.8365C80.0545 118.749 74.5566 113.251 74.5566 106.469V77.3047Z" fill="#FFFDFD"/>
<circle cx="98.3495" cy="94.9569" r="9.59367" fill="#FFFDFD" stroke="#FFFDFD" stroke-width="0.767494"/>
<path d="M95.2793 94.9569L101.419 94.9569" stroke="#FFFDFD" stroke-width="1.53499" stroke-linecap="round"/>
<path d="M74.5566 144.077C74.5566 137.295 80.0545 131.797 86.8365 131.797H239.568C246.35 131.797 251.848 137.295 251.848 144.077V167.102H74.5566V144.077Z" fill="#199CF9"/>
<path d="M89.6747 143.866L92.238 151.924H92.3364L94.9049 143.866H97.3905L93.7345 154.472H90.845L87.1839 143.866H89.6747ZM98.5841 154.472V153.156L102.478 148.335V148.278H98.7188V146.518H105.135V147.952L101.479 152.654V152.711H105.269V154.472H98.5841ZM109.659 154.601C109.055 154.601 108.508 154.446 108.018 154.135C107.531 153.821 107.144 153.36 106.858 152.753C106.575 152.142 106.433 151.392 106.433 150.505C106.433 149.594 106.58 148.836 106.873 148.232C107.167 147.624 107.557 147.17 108.044 146.87C108.534 146.566 109.071 146.414 109.654 146.414C110.1 146.414 110.471 146.49 110.768 146.642C111.068 146.791 111.31 146.977 111.493 147.201C111.679 147.422 111.821 147.64 111.917 147.854H111.985V143.866H114.185V154.472H112.01V153.198H111.917C111.814 153.419 111.667 153.638 111.477 153.856C111.291 154.07 111.047 154.247 110.747 154.389C110.45 154.53 110.088 154.601 109.659 154.601ZM110.359 152.846C110.714 152.846 111.014 152.749 111.26 152.556C111.508 152.359 111.698 152.085 111.829 151.732C111.964 151.38 112.031 150.968 112.031 150.495C112.031 150.022 111.966 149.611 111.834 149.262C111.703 148.914 111.513 148.644 111.265 148.454C111.016 148.265 110.714 148.17 110.359 148.17C109.996 148.17 109.69 148.268 109.442 148.465C109.193 148.662 109.005 148.934 108.877 149.283C108.75 149.632 108.686 150.036 108.686 150.495C108.686 150.957 108.75 151.366 108.877 151.722C109.009 152.074 109.197 152.35 109.442 152.551C109.69 152.747 109.996 152.846 110.359 152.846ZM119.624 154.627C118.806 154.627 118.102 154.461 117.511 154.13C116.924 153.795 116.472 153.322 116.154 152.711C115.837 152.097 115.678 151.37 115.678 150.531C115.678 149.713 115.837 148.995 116.154 148.377C116.472 147.759 116.919 147.277 117.496 146.932C118.076 146.587 118.756 146.414 119.536 146.414C120.061 146.414 120.549 146.499 121.001 146.668C121.457 146.834 121.854 147.084 122.192 147.419C122.534 147.754 122.8 148.175 122.99 148.682C123.18 149.186 123.275 149.777 123.275 150.453V151.059H116.558V149.692H121.198C121.198 149.375 121.129 149.093 120.991 148.848C120.853 148.603 120.661 148.411 120.416 148.273C120.175 148.132 119.893 148.061 119.572 148.061C119.237 148.061 118.94 148.139 118.681 148.294C118.426 148.446 118.226 148.651 118.081 148.91C117.936 149.166 117.862 149.45 117.858 149.765V151.064C117.858 151.458 117.931 151.798 118.076 152.085C118.224 152.371 118.433 152.592 118.702 152.747C118.971 152.903 119.291 152.98 119.66 152.98C119.905 152.98 120.13 152.946 120.333 152.877C120.537 152.808 120.711 152.704 120.856 152.566C121.001 152.428 121.112 152.259 121.188 152.059L123.228 152.193C123.125 152.684 122.912 153.112 122.591 153.478C122.274 153.84 121.863 154.123 121.359 154.327C120.858 154.527 120.28 154.627 119.624 154.627ZM118.443 143.214L119.484 144.477L120.525 143.214H122.405V143.286L120.302 145.565H118.661L116.564 143.286V143.214H118.443ZM126.92 143.866V154.472H124.714V143.866H126.92ZM130.956 154.622C130.448 154.622 129.996 154.534 129.599 154.358C129.202 154.178 128.888 153.914 128.656 153.566C128.429 153.213 128.315 152.775 128.315 152.25C128.315 151.808 128.396 151.437 128.558 151.137C128.72 150.837 128.941 150.595 129.221 150.412C129.5 150.229 129.818 150.091 130.174 149.998C130.533 149.904 130.909 149.839 131.303 149.801C131.765 149.753 132.138 149.708 132.421 149.666C132.704 149.621 132.91 149.556 133.037 149.469C133.165 149.383 133.229 149.255 133.229 149.086V149.055C133.229 148.727 133.125 148.473 132.918 148.294C132.715 148.114 132.425 148.025 132.048 148.025C131.651 148.025 131.335 148.113 131.101 148.289C130.866 148.461 130.71 148.679 130.635 148.941L128.594 148.776C128.698 148.292 128.902 147.875 129.205 147.522C129.509 147.167 129.901 146.894 130.381 146.704C130.864 146.511 131.423 146.414 132.059 146.414C132.5 146.414 132.923 146.466 133.327 146.57C133.735 146.673 134.095 146.834 134.41 147.051C134.727 147.269 134.977 147.548 135.16 147.89C135.343 148.228 135.435 148.634 135.435 149.107V154.472H133.343V153.369H133.281C133.153 153.617 132.982 153.837 132.768 154.026C132.554 154.213 132.297 154.36 131.996 154.467C131.696 154.57 131.349 154.622 130.956 154.622ZM131.587 153.1C131.912 153.1 132.198 153.036 132.447 152.908C132.696 152.777 132.891 152.601 133.032 152.38C133.174 152.159 133.244 151.908 133.244 151.629V150.785C133.175 150.83 133.08 150.871 132.96 150.909C132.842 150.944 132.709 150.976 132.561 151.007C132.412 151.035 132.264 151.061 132.116 151.085C131.967 151.106 131.832 151.125 131.712 151.142C131.453 151.18 131.227 151.24 131.033 151.323C130.84 151.406 130.69 151.518 130.583 151.66C130.476 151.798 130.422 151.971 130.422 152.178C130.422 152.478 130.531 152.708 130.748 152.866C130.969 153.022 131.249 153.1 131.587 153.1ZM131.349 145.492L132.447 143.136H134.487L132.908 145.492H131.349ZM139.352 149.873V154.472H137.146V146.518H139.249V147.921H139.342C139.518 147.459 139.813 147.093 140.228 146.823C140.642 146.551 141.144 146.414 141.734 146.414C142.287 146.414 142.768 146.535 143.179 146.777C143.59 147.018 143.909 147.364 144.137 147.812C144.365 148.258 144.479 148.789 144.479 149.407V154.472H142.273V149.801C142.276 149.314 142.152 148.934 141.9 148.662C141.648 148.385 141.301 148.247 140.859 148.247C140.562 148.247 140.3 148.311 140.072 148.439C139.848 148.567 139.672 148.753 139.544 148.998C139.42 149.24 139.356 149.532 139.352 149.873ZM146.218 154.472V146.518H148.424V154.472H146.218ZM146.534 145.492L147.631 143.136H149.672L148.092 145.492H146.534Z" fill="#0B1F42"/>
<circle cx="228.056" cy="149.449" r="9.59367" fill="#0B1F42" stroke="#0B1F42" stroke-width="0.767494"/>
<path d="M228.056 144.128V154.77" stroke="white" stroke-width="1.53499" stroke-linecap="round"/>
<path d="M222.734 149.449L233.377 149.449" stroke="white" stroke-width="1.53499" stroke-linecap="round"/>
<path d="M74.5566 167.102H251.848V196.266C251.848 203.048 246.35 208.546 239.568 208.546H86.8365C80.0545 208.546 74.5566 203.048 74.5566 196.266V167.102Z" fill="#FFFDFD"/>
<circle cx="98.3495" cy="184.754" r="9.59367" fill="#FFFDFD" stroke="#FFFDFD" stroke-width="0.767494"/>
<path d="M95.2793 184.754L101.419 184.754" stroke="#FFFDFD" stroke-width="1.53499" stroke-linecap="round"/>
</svg>
