<svg width="260" height="260" viewBox="0 0 260 260" fill="none" xmlns="http://www.w3.org/2000/svg">
<circle cx="130" cy="130" r="110" fill="#AA4BB3"/>
<path d="M86.1837 42.0681H238.915C245.421 42.0681 250.695 47.3422 250.695 53.848V76.3728H74.4038V53.848C74.4038 47.3422 79.6778 42.0681 86.1837 42.0681Z" fill="#ACABD3"/>
<path d="M86.1837 42.0681H238.915C245.421 42.0681 250.695 47.3422 250.695 53.848V76.3728H74.4038V53.848C74.4038 47.3422 79.6778 42.0681 86.1837 42.0681Z" stroke="#0B1F42"/>
<path d="M92.8586 56.6878C92.8171 56.27 92.6393 55.9455 92.3252 55.7142C92.011 55.4829 91.5847 55.3673 91.0461 55.3673C90.6802 55.3673 90.3712 55.419 90.1192 55.5226C89.8672 55.6227 89.6738 55.7625 89.5392 55.9421C89.408 56.1216 89.3424 56.3253 89.3424 56.5531C89.3355 56.743 89.3752 56.9087 89.4615 57.0502C89.5513 57.1918 89.6738 57.3143 89.8292 57.4179C89.9845 57.518 90.1641 57.6061 90.3677 57.682C90.5714 57.7545 90.7889 57.8166 91.0202 57.8684L91.973 58.0963C92.4357 58.1998 92.8603 58.3379 93.2469 58.5106C93.6336 58.6832 93.9685 58.8955 94.2515 59.1475C94.5346 59.3995 94.7538 59.6964 94.9092 60.0382C95.068 60.38 95.1491 60.7718 95.1526 61.2137C95.1491 61.8627 94.9834 62.4254 94.6555 62.9018C94.3309 63.3748 93.8614 63.7425 93.2469 64.0048C92.6359 64.2638 91.8988 64.3932 91.0358 64.3932C90.1796 64.3932 89.4339 64.262 88.7987 63.9997C88.1669 63.7373 87.6732 63.3489 87.3177 62.8345C86.9655 62.3167 86.7808 61.6763 86.7636 60.9133H88.9333C88.9575 61.2689 89.0593 61.5658 89.2389 61.804C89.4218 62.0388 89.6652 62.2166 89.969 62.3374C90.2763 62.4548 90.6232 62.5135 91.0099 62.5135C91.3896 62.5135 91.7193 62.4582 91.9989 62.3477C92.282 62.2373 92.5012 62.0836 92.6566 61.8869C92.8119 61.6901 92.8896 61.464 92.8896 61.2085C92.8896 60.9703 92.8189 60.7701 92.6773 60.6078C92.5392 60.4455 92.3355 60.3075 92.0663 60.1935C91.8004 60.0796 91.4742 59.976 91.0875 59.8828L89.9328 59.5928C89.0386 59.3753 88.3326 59.0353 87.8148 58.5727C87.297 58.1101 87.0398 57.487 87.0432 56.7033C87.0398 56.0612 87.2106 55.5002 87.5559 55.0203C87.9045 54.5404 88.3827 54.1659 88.9903 53.8966C89.5979 53.6273 90.2883 53.4927 91.0616 53.4927C91.8488 53.4927 92.5358 53.6273 93.1227 53.8966C93.713 54.1659 94.1721 54.5404 94.5001 55.0203C94.8281 55.5002 94.9972 56.056 95.0076 56.6878H92.8586ZM96.6194 67.2258V56.289H98.7943V57.625H98.8927C98.9894 57.411 99.1292 57.1935 99.3121 56.9726C99.4986 56.7482 99.7402 56.5617 100.037 56.4133C100.337 56.2614 100.71 56.1854 101.156 56.1854C101.736 56.1854 102.271 56.3373 102.761 56.6411C103.251 56.9415 103.643 57.3955 103.936 58.0031C104.23 58.6072 104.377 59.365 104.377 60.2764C104.377 61.1636 104.233 61.9128 103.947 62.5238C103.664 63.1314 103.277 63.5923 102.787 63.9064C102.3 64.2171 101.755 64.3725 101.15 64.3725C100.722 64.3725 100.358 64.3017 100.058 64.1602C99.7609 64.0186 99.5175 63.8409 99.3277 63.6268C99.1378 63.4093 98.9928 63.1901 98.8927 62.9692H98.8254V67.2258H96.6194ZM98.7788 60.266C98.7788 60.739 98.8444 61.1515 98.9755 61.5037C99.1067 61.8558 99.2966 62.1303 99.5452 62.327C99.7937 62.5204 100.096 62.617 100.451 62.617C100.81 62.617 101.114 62.5186 101.363 62.3219C101.611 62.1216 101.799 61.8454 101.927 61.4933C102.058 61.1377 102.124 60.7286 102.124 60.266C102.124 59.8069 102.06 59.403 101.932 59.0543C101.805 58.7056 101.617 58.4329 101.368 58.2361C101.119 58.0393 100.814 57.9409 100.451 57.9409C100.092 57.9409 99.7886 58.0359 99.54 58.2257C99.2949 58.4156 99.1067 58.6849 98.9755 59.0336C98.8444 59.3822 98.7788 59.7931 98.7788 60.266ZM109.441 64.3984C108.637 64.3984 107.941 64.2275 107.354 63.8857C106.771 63.5405 106.32 63.0606 106.003 62.4461C105.685 61.8282 105.526 61.1118 105.526 60.2971C105.526 59.4755 105.685 58.7574 106.003 58.1429C106.32 57.5249 106.771 57.0451 107.354 56.7033C107.941 56.3581 108.637 56.1854 109.441 56.1854C110.245 56.1854 110.939 56.3581 111.523 56.7033C112.11 57.0451 112.562 57.5249 112.88 58.1429C113.197 58.7574 113.356 59.4755 113.356 60.2971C113.356 61.1118 113.197 61.8282 112.88 62.4461C112.562 63.0606 112.11 63.5405 111.523 63.8857C110.939 64.2275 110.245 64.3984 109.441 64.3984ZM109.451 62.6895C109.817 62.6895 110.123 62.586 110.368 62.3788C110.613 62.1682 110.798 61.8817 110.922 61.5192C111.05 61.1567 111.114 60.7442 111.114 60.2816C111.114 59.819 111.05 59.4064 110.922 59.0439C110.798 58.6814 110.613 58.3949 110.368 58.1843C110.123 57.9737 109.817 57.8684 109.451 57.8684C109.082 57.8684 108.771 57.9737 108.519 58.1843C108.271 58.3949 108.083 58.6814 107.955 59.0439C107.831 59.4064 107.768 59.819 107.768 60.2816C107.768 60.7442 107.831 61.1567 107.955 61.5192C108.083 61.8817 108.271 62.1682 108.519 62.3788C108.771 62.586 109.082 62.6895 109.451 62.6895ZM114.79 64.243V56.289H116.929V57.6768H117.012C117.157 57.1832 117.4 56.8103 117.742 56.5583C118.084 56.3028 118.477 56.1751 118.923 56.1751C119.033 56.1751 119.152 56.182 119.28 56.1958C119.408 56.2096 119.52 56.2286 119.617 56.2528V58.2102C119.513 58.1791 119.37 58.1515 119.187 58.1273C119.004 58.1032 118.836 58.0911 118.685 58.0911C118.36 58.0911 118.07 58.1619 117.815 58.3034C117.563 58.4415 117.362 58.6348 117.214 58.8834C117.069 59.132 116.996 59.4185 116.996 59.743V64.243H114.79ZM116.137 52.9852L117.178 54.2487L118.218 52.9852H120.098V53.0577L117.996 55.3362H116.354L114.257 53.0577V52.9852H116.137ZM120.757 64.243V56.289H122.963V64.243H120.757ZM121.865 55.2637C121.537 55.2637 121.256 55.1549 121.021 54.9375C120.79 54.7165 120.674 54.4524 120.674 54.1452C120.674 53.8414 120.79 53.5807 121.021 53.3632C121.256 53.1423 121.537 53.0318 121.865 53.0318C122.193 53.0318 122.473 53.1423 122.704 53.3632C122.939 53.5807 123.056 53.8414 123.056 54.1452C123.056 54.4524 122.939 54.7165 122.704 54.9375C122.473 55.1549 122.193 55.2637 121.865 55.2637ZM128.324 64.3984C127.509 64.3984 126.809 64.2258 126.222 63.8806C125.638 63.5319 125.189 63.0486 124.875 62.4306C124.565 61.8126 124.409 61.1015 124.409 60.2971C124.409 59.4824 124.566 58.7677 124.88 58.1532C125.198 57.5353 125.649 57.0537 126.232 56.7085C126.815 56.3598 127.509 56.1854 128.314 56.1854C129.008 56.1854 129.615 56.3115 130.137 56.5635C130.658 56.8155 131.07 57.1693 131.374 57.625C131.678 58.0807 131.845 58.6158 131.877 59.2303H129.795C129.736 58.8333 129.581 58.514 129.329 58.2723C129.08 58.0272 128.754 57.9047 128.35 57.9047C128.008 57.9047 127.71 57.9979 127.454 58.1843C127.202 58.3673 127.005 58.6348 126.864 58.987C126.722 59.3391 126.652 59.7655 126.652 60.266C126.652 60.7735 126.721 61.205 126.859 61.5606C127 61.9162 127.199 62.1872 127.454 62.3736C127.71 62.5601 128.008 62.6533 128.35 62.6533C128.602 62.6533 128.828 62.6015 129.028 62.4979C129.232 62.3944 129.4 62.2442 129.531 62.0474C129.665 61.8472 129.753 61.6072 129.795 61.3276H131.877C131.842 61.9352 131.676 62.4703 131.379 62.9329C131.086 63.3921 130.68 63.7511 130.162 64.01C129.645 64.2689 129.032 64.3984 128.324 64.3984ZM133.289 64.243V56.289H135.495V64.243H133.289ZM133.605 55.2637L134.703 52.9075H136.743L135.164 55.2637H133.605ZM145.738 60.8564V56.289H147.944V64.243H145.826V62.7983H145.743C145.563 63.2643 145.265 63.6389 144.847 63.922C144.433 64.2051 143.927 64.3466 143.33 64.3466C142.798 64.3466 142.33 64.2258 141.927 63.9841C141.523 63.7425 141.207 63.399 140.979 62.9536C140.754 62.5083 140.641 61.9749 140.637 61.3535V56.289H142.843V60.9599C142.847 61.4294 142.973 61.8006 143.221 62.0733C143.47 62.346 143.803 62.4824 144.221 62.4824C144.486 62.4824 144.735 62.422 144.966 62.3011C145.198 62.1769 145.384 61.9939 145.525 61.7522C145.67 61.5106 145.741 61.212 145.738 60.8564ZM143.506 55.2637L144.604 52.9075H146.644L145.065 55.2637H143.506ZM153.302 64.3984C152.487 64.3984 151.787 64.2258 151.2 63.8806C150.616 63.5319 150.167 63.0486 149.853 62.4306C149.543 61.8126 149.387 61.1015 149.387 60.2971C149.387 59.4824 149.544 58.7677 149.859 58.1532C150.176 57.5353 150.627 57.0537 151.21 56.7085C151.794 56.3598 152.487 56.1854 153.292 56.1854C153.986 56.1854 154.593 56.3115 155.115 56.5635C155.636 56.8155 156.048 57.1693 156.352 57.625C156.656 58.0807 156.823 58.6158 156.855 59.2303H154.773C154.714 58.8333 154.559 58.514 154.307 58.2723C154.058 58.0272 153.732 57.9047 153.328 57.9047C152.986 57.9047 152.688 57.9979 152.432 58.1843C152.18 58.3673 151.983 58.6348 151.842 58.987C151.7 59.3391 151.63 59.7655 151.63 60.266C151.63 60.7735 151.699 61.205 151.837 61.5606C151.978 61.9162 152.177 62.1872 152.432 62.3736C152.688 62.5601 152.986 62.6533 153.328 62.6533C153.58 62.6533 153.806 62.6015 154.006 62.4979C154.21 62.3944 154.378 62.2442 154.509 62.0474C154.643 61.8472 154.731 61.6072 154.773 61.3276H156.855C156.82 61.9352 156.654 62.4703 156.357 62.9329C156.064 63.3921 155.658 63.7511 155.14 64.01C154.623 64.2689 154.01 64.3984 153.302 64.3984ZM152.256 52.9852L153.297 54.2487L154.338 52.9852H156.218V53.0577L154.115 55.3362H152.474L150.376 53.0577V52.9852H152.256ZM161.892 64.3984C161.074 64.3984 160.369 64.2327 159.779 63.9013C159.192 63.5664 158.74 63.0934 158.422 62.4824C158.105 61.8679 157.946 61.1412 157.946 60.3023C157.946 59.4841 158.105 58.766 158.422 58.1481C158.74 57.5301 159.187 57.0485 159.764 56.7033C160.343 56.3581 161.024 56.1854 161.804 56.1854C162.329 56.1854 162.817 56.27 163.269 56.4392C163.725 56.6049 164.122 56.8552 164.46 57.1901C164.802 57.5249 165.068 57.9461 165.258 58.4536C165.448 58.9576 165.543 59.548 165.543 60.2246V60.8305H158.826V59.4634H163.466C163.466 59.1458 163.397 58.8644 163.259 58.6193C163.121 58.3742 162.929 58.1826 162.684 58.0445C162.442 57.903 162.161 57.8322 161.84 57.8322C161.505 57.8322 161.208 57.9099 160.949 58.0652C160.694 58.2171 160.494 58.4225 160.349 58.6814C160.204 58.9369 160.129 59.2217 160.126 59.5359V60.8357C160.126 61.2292 160.198 61.5693 160.343 61.8558C160.492 62.1423 160.701 62.3633 160.97 62.5186C161.239 62.674 161.559 62.7517 161.928 62.7517C162.173 62.7517 162.398 62.7171 162.601 62.6481C162.805 62.579 162.979 62.4755 163.124 62.3374C163.269 62.1993 163.38 62.0301 163.456 61.8299L165.496 61.9645C165.392 62.4548 165.18 62.8828 164.859 63.2488C164.541 63.6113 164.131 63.8944 163.627 64.098C163.126 64.2983 162.548 64.3984 161.892 64.3984ZM171.213 56.289V57.9461H166.423V56.289H171.213ZM167.51 54.3834H169.716V61.7988C169.716 62.0025 169.747 62.1613 169.81 62.2752C169.872 62.3857 169.958 62.4634 170.069 62.5083C170.182 62.5532 170.314 62.5756 170.462 62.5756C170.566 62.5756 170.669 62.567 170.773 62.5497C170.876 62.529 170.956 62.5135 171.011 62.5031L171.358 64.1447C171.247 64.1792 171.092 64.2189 170.892 64.2638C170.692 64.3121 170.448 64.3414 170.162 64.3518C169.63 64.3725 169.164 64.3017 168.764 64.1395C168.367 63.9772 168.058 63.7252 167.837 63.3834C167.616 63.0417 167.507 62.6101 167.51 62.0888V54.3834Z" fill="#0B1F42"/>
<circle cx="227.402" cy="59.2205" r="9.59367" fill="#0B1F42" stroke="#0B1F42" stroke-width="0.767494"/>
<path d="M227.402 53.8992V64.5418" stroke="white" stroke-width="1.53499" stroke-linecap="round"/>
<path d="M222.081 59.2205L232.724 59.2205" stroke="white" stroke-width="1.53499" stroke-linecap="round"/>
<mask id="path-7-inside-1_10_96" fill="white">
<path d="M73.9038 76.8728H251.195V106.038C251.195 112.82 245.697 118.317 238.915 118.317H86.1837C79.4017 118.317 73.9038 112.82 73.9038 106.038V76.8728Z"/>
</mask>
<path d="M73.9038 76.8728H251.195V106.038C251.195 112.82 245.697 118.317 238.915 118.317H86.1837C79.4017 118.317 73.9038 112.82 73.9038 106.038V76.8728Z" fill="#FFFDFD"/>
<path d="M73.9038 76.8728H251.195H73.9038ZM252.195 106.038C252.195 113.372 246.249 119.317 238.915 119.317H86.1837C78.8494 119.317 72.9038 113.372 72.9038 106.038H74.9038C74.9038 112.267 79.954 117.317 86.1837 117.317H238.915C245.145 117.317 250.195 112.267 250.195 106.038H252.195ZM86.1837 119.317C78.8494 119.317 72.9038 113.372 72.9038 106.038V76.8728H74.9038V106.038C74.9038 112.267 79.954 117.317 86.1837 117.317V119.317ZM252.195 76.8728V106.038C252.195 113.372 246.249 119.317 238.915 119.317V117.317C245.145 117.317 250.195 112.267 250.195 106.038V76.8728H252.195Z" fill="#0B1F42" mask="url(#path-7-inside-1_10_96)"/>
<circle cx="97.6959" cy="94.5251" r="9.59367" fill="#FFFDFD" stroke="#FFFDFD" stroke-width="0.767494"/>
<path d="M94.626 94.5251L100.766 94.5251" stroke="#FFFDFD" stroke-width="1.53499" stroke-linecap="round"/>
<path d="M86.1837 131.865H238.915C245.421 131.865 250.695 137.139 250.695 143.645V166.17H74.4038V143.645C74.4038 137.139 79.6778 131.865 86.1837 131.865Z" fill="#199CF9"/>
<path d="M86.1837 131.865H238.915C245.421 131.865 250.695 137.139 250.695 143.645V166.17H74.4038V143.645C74.4038 137.139 79.6778 131.865 86.1837 131.865Z" stroke="#0B1F42"/>
<path d="M89.0214 143.435L91.5847 151.492H91.6831L94.2515 143.435H96.7372L93.0812 154.04H90.1917L86.5305 143.435H89.0214ZM97.9308 154.04V152.725L101.825 147.904V147.847H98.0654V146.086H104.481V147.52L100.826 152.222V152.279H104.616V154.04H97.9308ZM109.006 154.169C108.402 154.169 107.855 154.014 107.365 153.703C106.878 153.389 106.491 152.928 106.205 152.321C105.922 151.71 105.78 150.96 105.78 150.073C105.78 149.162 105.927 148.404 106.22 147.8C106.514 147.192 106.904 146.738 107.39 146.438C107.881 146.134 108.417 145.982 109.001 145.982C109.446 145.982 109.817 146.058 110.114 146.21C110.415 146.359 110.656 146.545 110.839 146.769C111.026 146.99 111.167 147.208 111.264 147.422H111.331V143.435H113.532V154.04H111.357V152.766H111.264C111.16 152.987 111.014 153.206 110.824 153.424C110.637 153.638 110.394 153.816 110.094 153.957C109.797 154.099 109.434 154.169 109.006 154.169ZM109.705 152.414C110.061 152.414 110.361 152.317 110.606 152.124C110.855 151.927 111.045 151.653 111.176 151.301C111.31 150.948 111.378 150.536 111.378 150.063C111.378 149.59 111.312 149.179 111.181 148.83C111.05 148.482 110.86 148.212 110.611 148.023C110.363 147.833 110.061 147.738 109.705 147.738C109.343 147.738 109.037 147.836 108.789 148.033C108.54 148.23 108.352 148.502 108.224 148.851C108.096 149.2 108.033 149.604 108.033 150.063C108.033 150.526 108.096 150.935 108.224 151.29C108.355 151.642 108.544 151.918 108.789 152.119C109.037 152.316 109.343 152.414 109.705 152.414ZM118.971 154.195C118.152 154.195 117.448 154.03 116.858 153.698C116.271 153.363 115.819 152.89 115.501 152.279C115.184 151.665 115.025 150.938 115.025 150.099C115.025 149.281 115.184 148.563 115.501 147.945C115.819 147.327 116.266 146.845 116.842 146.5C117.422 146.155 118.102 145.982 118.883 145.982C119.407 145.982 119.896 146.067 120.348 146.236C120.804 146.402 121.201 146.652 121.539 146.987C121.881 147.322 122.147 147.743 122.337 148.25C122.526 148.754 122.621 149.345 122.621 150.021V150.627H115.905V149.26H120.545C120.545 148.943 120.476 148.661 120.338 148.416C120.2 148.171 120.008 147.979 119.763 147.841C119.521 147.7 119.24 147.629 118.919 147.629C118.584 147.629 118.287 147.707 118.028 147.862C117.773 148.014 117.572 148.219 117.427 148.478C117.282 148.734 117.208 149.019 117.205 149.333V150.633C117.205 151.026 117.277 151.366 117.422 151.653C117.571 151.939 117.78 152.16 118.049 152.316C118.318 152.471 118.638 152.549 119.007 152.549C119.252 152.549 119.476 152.514 119.68 152.445C119.884 152.376 120.058 152.272 120.203 152.134C120.348 151.996 120.459 151.827 120.535 151.627L122.575 151.761C122.471 152.252 122.259 152.68 121.938 153.046C121.62 153.408 121.209 153.691 120.705 153.895C120.205 154.095 119.627 154.195 118.971 154.195ZM117.79 142.782L118.831 144.046L119.872 142.782H121.751V142.855L119.649 145.133H118.007L115.91 142.855V142.782H117.79ZM126.267 143.435V154.04H124.061V143.435H126.267ZM130.302 154.19C129.795 154.19 129.343 154.102 128.946 153.926C128.549 153.746 128.234 153.482 128.003 153.134C127.775 152.782 127.661 152.343 127.661 151.818C127.661 151.376 127.742 151.005 127.905 150.705C128.067 150.405 128.288 150.163 128.568 149.98C128.847 149.797 129.165 149.659 129.52 149.566C129.879 149.473 130.256 149.407 130.649 149.369C131.112 149.321 131.485 149.276 131.768 149.234C132.051 149.189 132.256 149.124 132.384 149.038C132.512 148.951 132.576 148.824 132.576 148.654V148.623C132.576 148.295 132.472 148.042 132.265 147.862C132.061 147.683 131.771 147.593 131.395 147.593C130.998 147.593 130.682 147.681 130.447 147.857C130.213 148.03 130.057 148.247 129.981 148.509L127.941 148.344C128.045 147.86 128.248 147.443 128.552 147.091C128.856 146.735 129.248 146.462 129.727 146.272C130.211 146.079 130.77 145.982 131.405 145.982C131.847 145.982 132.27 146.034 132.674 146.138C133.081 146.241 133.442 146.402 133.756 146.619C134.074 146.837 134.324 147.116 134.507 147.458C134.69 147.796 134.782 148.202 134.782 148.675V154.04H132.69V152.937H132.627C132.5 153.185 132.329 153.405 132.115 153.595C131.901 153.781 131.643 153.928 131.343 154.035C131.043 154.138 130.696 154.19 130.302 154.19ZM130.934 152.668C131.259 152.668 131.545 152.604 131.794 152.476C132.042 152.345 132.237 152.169 132.379 151.948C132.52 151.727 132.591 151.477 132.591 151.197V150.353C132.522 150.398 132.427 150.439 132.306 150.477C132.189 150.512 132.056 150.544 131.908 150.576C131.759 150.603 131.611 150.629 131.462 150.653C131.314 150.674 131.179 150.693 131.058 150.71C130.799 150.748 130.573 150.809 130.38 150.891C130.187 150.974 130.036 151.087 129.929 151.228C129.822 151.366 129.769 151.539 129.769 151.746C129.769 152.046 129.878 152.276 130.095 152.435C130.316 152.59 130.596 152.668 130.934 152.668ZM130.696 145.061L131.794 142.704H133.834L132.255 145.061H130.696ZM138.699 149.441V154.04H136.493V146.086H138.595V147.489H138.689C138.865 147.027 139.16 146.661 139.574 146.391C139.988 146.119 140.491 145.982 141.081 145.982C141.633 145.982 142.115 146.103 142.526 146.345C142.937 146.586 143.256 146.932 143.484 147.38C143.712 147.826 143.826 148.357 143.826 148.975V154.04H141.62V149.369C141.623 148.882 141.499 148.502 141.247 148.23C140.995 147.954 140.648 147.815 140.206 147.815C139.909 147.815 139.647 147.879 139.419 148.007C139.194 148.135 139.018 148.321 138.891 148.566C138.766 148.808 138.703 149.1 138.699 149.441ZM145.564 154.04V146.086H147.77V154.04H145.564ZM145.88 145.061L146.978 142.704H149.018L147.439 145.061H145.88Z" fill="#0B1F42"/>
<circle cx="227.402" cy="149.017" r="9.59367" fill="#0B1F42" stroke="#0B1F42" stroke-width="0.767494"/>
<path d="M227.402 143.696V154.339" stroke="white" stroke-width="1.53499" stroke-linecap="round"/>
<path d="M222.081 149.017L232.724 149.017" stroke="white" stroke-width="1.53499" stroke-linecap="round"/>
<mask id="path-16-inside-2_10_96" fill="white">
<path d="M73.9038 166.67H251.195V195.834C251.195 202.616 245.697 208.114 238.915 208.114H86.1837C79.4017 208.114 73.9038 202.616 73.9038 195.834V166.67Z"/>
</mask>
<path d="M73.9038 166.67H251.195V195.834C251.195 202.616 245.697 208.114 238.915 208.114H86.1837C79.4017 208.114 73.9038 202.616 73.9038 195.834V166.67Z" fill="#FFFDFD"/>
<path d="M73.9038 166.67H251.195H73.9038ZM252.195 195.834C252.195 203.169 246.249 209.114 238.915 209.114H86.1837C78.8494 209.114 72.9038 203.169 72.9038 195.834H74.9038C74.9038 202.064 79.954 207.114 86.1837 207.114H238.915C245.145 207.114 250.195 202.064 250.195 195.834H252.195ZM86.1837 209.114C78.8494 209.114 72.9038 203.169 72.9038 195.834V166.67H74.9038V195.834C74.9038 202.064 79.954 207.114 86.1837 207.114V209.114ZM252.195 166.67V195.834C252.195 203.169 246.249 209.114 238.915 209.114V207.114C245.145 207.114 250.195 202.064 250.195 195.834V166.67H252.195Z" fill="#0B1F42" mask="url(#path-16-inside-2_10_96)"/>
<circle cx="97.6959" cy="184.322" r="9.59367" fill="#FFFDFD" stroke="#FFFDFD" stroke-width="0.767494"/>
<path d="M94.626 184.322L100.766 184.322" stroke="#FFFDFD" stroke-width="1.53499" stroke-linecap="round"/>
</svg>
