<svg width="261" height="261" viewBox="0 0 261 261" fill="none" xmlns="http://www.w3.org/2000/svg">
<circle cx="130.758" cy="130.16" r="110" fill="#FFD32A"/>
<rect x="63.4716" y="86.2444" width="147.301" height="99.5341" rx="6" fill="#0B1F42" stroke="#0B1F42"/>
<rect x="55.4653" y="79.21" width="147.301" height="99.5341" rx="6" fill="white" stroke="#0B1F42"/>
<path d="M107.705 97.8726H151.251" stroke="#0B1F42" stroke-linecap="round" stroke-linejoin="round"/>
<path d="M73.1426 118.09H190.071" stroke="#0B1F42" stroke-linecap="round" stroke-linejoin="round"/>
<path d="M73.1426 128.977H190.071" stroke="#0B1F42" stroke-linecap="round" stroke-linejoin="round"/>
<path d="M106.796 142.974H152.793" stroke="#0B1F42" stroke-linecap="round" stroke-linejoin="round"/>
<path d="M172.362 70.4677V101.204L178.989 95.3044H235.216C238.276 95.3044 240.758 92.8216 240.758 89.761V70.4677C240.758 67.4072 238.276 64.9243 235.216 64.9243H177.904C174.844 64.9243 172.362 67.4072 172.362 70.4677Z" fill="#FFFDFD" stroke="#0B1F42" stroke-linecap="round" stroke-linejoin="round"/>
<path d="M208.735 76.5468C208.735 74.3269 210.535 72.5273 212.755 72.5273C214.975 72.5273 216.774 74.3269 216.774 76.5468V84.5856C216.774 86.8055 214.975 88.605 212.755 88.605C210.535 88.605 208.735 86.8055 208.735 84.5856V76.5468Z" stroke="#0B1F42" stroke-linecap="round" stroke-linejoin="round"/>
<path d="M221.13 88.605V80.5662M221.13 80.5662V72.5273H225.15C227.369 72.5273 229.169 74.3269 229.169 76.5468C229.169 78.7666 227.369 80.5662 225.15 80.5662H221.13Z" stroke="#0B1F42" stroke-linecap="round" stroke-linejoin="round"/>
<path d="M183.95 84.5856C183.95 86.8055 185.75 88.605 187.97 88.605C190.19 88.605 191.989 86.8055 191.989 84.5856C191.989 82.3657 190.318 81.6094 187.97 80.5662C185.622 79.523 183.95 78.7666 183.95 76.5468C183.95 74.3269 185.75 72.5273 187.97 72.5273C190.19 72.5273 191.989 74.3269 191.989 76.5468" stroke="#0B1F42" stroke-linecap="round" stroke-linejoin="round"/>
<path d="M196.338 72.5273H204.377M200.357 88.605V72.5273" stroke="#0B1F42" stroke-linecap="round" stroke-linejoin="round"/>
<path d="M42.3451 161.241L59.3766 131.742L76.4081 161.241H42.3451Z" fill="#FFD32A" stroke="#0B1F42" stroke-linecap="round" stroke-linejoin="round"/>
<path d="M59.3771 141.877V152.07" stroke="#0B1F42" stroke-linecap="round" stroke-linejoin="round"/>
<path d="M59.3771 156.27V156.068" stroke="#0B1F42" stroke-linecap="round" stroke-linejoin="round"/>
</svg>
