<svg width="30" height="31" viewBox="0 0 30 31" fill="none" xmlns="http://www.w3.org/2000/svg">
<path d="M1.3118 17.2859C0.230051 16.2041 0.23005 14.4502 1.3118 13.3685L13.0418 1.63846C14.1236 0.556711 15.8774 0.55671 16.9592 1.63846L28.6892 13.3685C29.771 14.4502 29.771 16.2041 28.6892 17.2859L16.9592 29.0159C15.8774 30.0976 14.1236 30.0976 13.0418 29.0159L1.3118 17.2859Z" stroke="#A7BAC8"/>
<path d="M15.1376 21.6816C14.5391 21.6778 13.9614 21.5774 13.4046 21.3804C12.8516 21.1834 12.3554 20.8634 11.916 20.4202C11.4766 19.977 11.1281 19.3899 10.8705 18.6588C10.6167 17.9278 10.4898 17.03 10.4898 15.9656C10.4936 14.9884 10.6054 14.1153 10.8251 13.3463C11.0486 12.5736 11.3667 11.9183 11.7796 11.3804C12.1963 10.8425 12.6944 10.4334 13.2739 10.1531C13.8535 9.86905 14.5031 9.72701 15.2228 9.72701C15.9993 9.72701 16.6849 9.87852 17.2796 10.1816C17.8743 10.4808 18.3516 10.888 18.7114 11.4031C19.0751 11.9183 19.2948 12.4959 19.3705 13.1361H16.9444C16.8497 12.7308 16.6508 12.4126 16.3478 12.1816C16.0448 11.9505 15.6698 11.835 15.2228 11.835C14.4652 11.835 13.8895 12.1645 13.4955 12.8236C13.1054 13.4827 12.9065 14.3785 12.8989 15.5111H12.9785C13.1527 15.1664 13.3876 14.8728 13.683 14.6304C13.9823 14.3842 14.3213 14.1967 14.7001 14.0679C15.0827 13.9353 15.4861 13.8691 15.9103 13.8691C16.5997 13.8691 17.2133 14.0319 17.7512 14.3577C18.2891 14.6797 18.7133 15.1228 19.0239 15.6872C19.3345 16.2516 19.4898 16.8975 19.4898 17.6247C19.4898 18.4126 19.3061 19.1134 18.9387 19.727C18.5751 20.3406 18.0656 20.8217 17.4103 21.1702C16.7588 21.5149 16.0012 21.6853 15.1376 21.6816ZM15.1262 19.7497C15.505 19.7497 15.844 19.6588 16.1433 19.477C16.4425 19.2952 16.6773 19.049 16.8478 18.7384C17.0183 18.4278 17.1035 18.0793 17.1035 17.6929C17.1035 17.3066 17.0183 16.96 16.8478 16.6531C16.6811 16.3463 16.4501 16.102 16.1546 15.9202C15.8592 15.7384 15.522 15.6475 15.1433 15.6475C14.8592 15.6475 14.5959 15.7005 14.3535 15.8066C14.1148 15.9126 13.9046 16.0603 13.7228 16.2497C13.5448 16.4391 13.4046 16.6588 13.3023 16.9088C13.2001 17.155 13.1489 17.4183 13.1489 17.6986C13.1489 18.0736 13.2342 18.4164 13.4046 18.727C13.5789 19.0376 13.8137 19.2857 14.1092 19.4713C14.4084 19.6569 14.7474 19.7497 15.1262 19.7497Z" fill="#A7BAC8"/>
</svg>
